<svg width="15" height="12" viewBox="0 0 15 12" fill="none" xmlns="http://www.w3.org/2000/svg">
<path fill-rule="evenodd" clip-rule="evenodd" d="M12.6667 1.33333H2C1.63181 1.33333 1.33333 1.63181 1.33333 2V10C1.33333 10.3682 1.63181 10.6667 2 10.6667H12.6667C13.0349 10.6667 13.3333 10.3682 13.3333 10V2C13.3333 1.63181 13.0349 1.33333 12.6667 1.33333ZM2 0C0.895431 0 0 0.895431 0 2V10C0 11.1046 0.89543 12 2 12H12.6667C13.7712 12 14.6667 11.1046 14.6667 10V2C14.6667 0.895431 13.7712 0 12.6667 0H2Z" fill="#777E91"/>
</svg>
