<svg width="12" height="10" viewBox="0 0 12 10" fill="none" xmlns="http://www.w3.org/2000/svg">
<path fill-rule="evenodd" clip-rule="evenodd" d="M6 1.33333C4.81828 1.33333 3.76562 1.37637 2.90558 1.43104C2.08981 1.4829 1.46253 2.10532 1.40398 2.91533C1.36233 3.49155 1.33333 4.09871 1.33333 4.66667C1.33333 5.23463 1.36233 5.84178 1.40398 6.41801C1.46253 7.22801 2.08981 7.85044 2.90559 7.90229C3.76562 7.95696 4.81828 8 6 8C7.18172 8 8.23438 7.95696 9.09442 7.90229C9.9102 7.85044 10.5375 7.22801 10.596 6.418C10.6377 5.84178 10.6667 5.23463 10.6667 4.66667C10.6667 4.09871 10.6377 3.49155 10.596 2.91533C10.5375 2.10532 9.9102 1.4829 9.09442 1.43104C8.23438 1.37637 7.18172 1.33333 6 1.33333ZM2.821 0.100394C1.34251 0.194373 0.180916 1.34158 0.0741166 2.81921C0.0310116 3.41559 0 4.05663 0 4.66667C0 5.2767 0.0310116 5.91774 0.0741167 6.51412C0.180916 7.99175 1.34251 9.13896 2.821 9.23294C3.70519 9.28914 4.78631 9.33333 6 9.33333C7.2137 9.33333 8.29482 9.28914 9.179 9.23294C10.6575 9.13896 11.8191 7.99175 11.9259 6.51412C11.969 5.91774 12 5.2767 12 4.66667C12 4.05663 11.969 3.41559 11.9259 2.81921C11.8191 1.34158 10.6575 0.194373 9.179 0.100394C8.29481 0.0441916 7.21369 0 6 0C4.78631 0 3.70519 0.0441916 2.821 0.100394Z" fill="#23262F"/>
</svg>
