<svg width="638" height="684" viewBox="0 0 638 684" fill="none" xmlns="http://www.w3.org/2000/svg">
<path fill-rule="evenodd" clip-rule="evenodd" d="M498.967 424.866C488.061 429.131 475.442 435.533 474.272 447.185C489.089 435.786 507.391 428.984 526.056 427.939C513.162 444.184 496.88 457.729 478.558 467.451C462.105 476.182 441.273 485.494 439.862 504.068C457.533 483.026 484.701 470.287 512.179 470.159C494.599 495.907 466.412 514.169 435.728 519.69C436.781 527.602 470.801 544.549 480.711 547.809C487.767 578.126 490.824 617.443 497.881 647.76C499.618 655.22 501.147 663.793 496.578 669.942C492.046 676.041 483.487 677.09 475.907 677.629C446.034 679.753 405.16 681.876 375.287 684C371.71 667.796 368.133 651.591 364.556 635.387C314.166 640.066 98.1385 689.57 58.4943 663.599C-94.545 563.346 100.607 529.194 104.801 407.135C105.762 379.149 21.6158 330.226 22.9518 301.628C23.8242 282.954 26.715 264.713 35.9541 248.678C45.1933 232.644 59.8335 220.292 75.7457 210.844C53.8384 205.213 37.2447 183.375 37.6887 160.76C38.1326 138.145 55.5706 116.976 77.682 112.209C67.257 99.7855 50.8414 94.0913 38.8509 83.1713C24.8829 70.4504 17.8638 49.9301 22.9518 31.7356C28.0398 13.541 45.9541 -0.77414 64.8295 0.0324869C80.3339 0.695059 93.9781 10.5013 104.801 21.6233C121.585 38.8723 134.068 60.2757 140.817 83.3777C145.315 98.7759 161.801 106.609 175.724 114.578C189.647 122.547 204.105 136.428 200.182 151.983C194.996 130.698 272.075 156.051 341.979 162.257C351.26 163.081 361.249 164.281 368.11 170.585C377.969 179.646 392.772 182.95 405.549 178.943C409.613 189.02 412.604 200.339 409.148 210.641C405.693 220.943 393.454 228.806 383.669 224.08C386.223 237.22 388.777 250.359 391.331 263.499C416.347 263.799 441.361 264.31 466.368 265.031C479.622 265.413 493.476 266.016 504.995 272.583C516.514 279.149 531.933 269.846 543.315 245.945C535.949 284.945 544.677 300.529 559.728 304.765C559.76 304.47 560.929 304.611 560.964 304.316C565.445 265.777 591.596 231.557 627.992 218.02C624.774 225.437 601.746 240.086 585.755 258.792C570.135 277.065 562.658 301.528 561.884 305.921C586.686 299.418 594.954 317.896 637.033 301.628C617.805 324.745 580.753 330.437 555.473 314.157C543.546 327.458 544.213 342.187 535.764 357.928C550.116 340.091 569.173 355.904 554.055 367.465C562.079 368.236 570.755 369.293 576.576 374.87C582.396 380.447 582.541 392.186 575.034 395.121C549.678 405.036 524.323 414.951 498.967 424.866Z" fill="#64FCD9"/>
</svg>
