<svg width="631" height="675" viewBox="0 0 631 675" fill="none" xmlns="http://www.w3.org/2000/svg">
<path fill-rule="evenodd" clip-rule="evenodd" d="M94.5553 255.239C91.8959 253.807 89.7333 251.623 87.6136 249.471C82.1458 243.921 76.6097 238.281 72.8159 231.476C72.4547 230.828 72.0995 230.085 72.3078 229.373C72.5161 228.661 73.6032 228.256 74.0096 228.877C80.604 238.944 88.9316 247.873 98.5157 255.152C97.6539 256.311 95.8268 255.924 94.5553 255.239Z" fill="#00160A"/>
<path fill-rule="evenodd" clip-rule="evenodd" d="M102.521 127.821C104.092 126.203 104.93 124.025 105.654 121.888C107.909 115.226 109.447 108.321 110.23 101.331C110.371 100.072 110.602 98.6222 111.695 97.9806C112.923 103.974 111.402 110.151 109.888 116.079C108.558 121.29 107.085 126.763 103.313 130.596C102.931 130.984 102.444 131.38 101.907 131.29C101.183 131.169 100.893 130.207 101.152 129.52C101.41 128.834 102.01 128.347 102.521 127.821L102.521 127.821Z" fill="#00160A"/>
<path fill-rule="evenodd" clip-rule="evenodd" d="M481.723 180.097C482.47 179.898 483.232 180.487 483.558 181.189C483.884 181.891 483.908 182.689 484.053 183.449C484.62 186.42 487.298 188.857 490.309 189.143C490.684 190.016 489.854 190.889 489.198 191.576C487.704 193.139 486.761 195.218 486.569 197.372C486.444 198.769 486.15 200.714 484.748 200.695C483.621 200.681 483.125 199.317 482.719 198.265C481.727 195.696 479.49 193.642 476.846 192.872C476.291 192.71 476.057 192 476.21 191.443C476.363 190.885 476.786 190.449 477.189 190.035C478.927 188.253 480.69 186.143 480.671 183.654C480.661 182.308 480.422 180.445 481.723 180.097Z" fill="#FFB61D"/>
<path fill-rule="evenodd" clip-rule="evenodd" d="M534.38 413.901C532.048 416.298 531.222 420.05 532.332 423.205C531.102 423.755 530.183 422.061 529.575 420.859C528.662 419.056 526.937 417.684 524.974 417.201C527.817 415.408 529.586 412.034 529.444 408.676C530.587 407.931 531.866 409.484 532.194 410.808C532.523 412.132 533.017 413.854 534.38 413.901Z" fill="#E7EAEE"/>
<path fill-rule="evenodd" clip-rule="evenodd" d="M514.472 418.396C515.825 420.543 517.749 422.326 519.992 423.513C520.797 423.939 520.067 425.125 519.401 425.747C517.725 427.315 516.663 429.523 516.486 431.811C515.02 430.342 513.553 428.872 512.087 427.403C511.502 426.816 510.884 425.906 511.389 425.249C512.927 423.243 513.992 420.877 514.472 418.396Z" fill="#E7EAEE"/>
<path fill-rule="evenodd" clip-rule="evenodd" d="M416.525 159.942C417.859 151.444 421.085 143.092 426.752 136.62C432.419 130.148 440.691 125.73 449.293 125.737C457.896 125.744 466.583 130.616 470.158 138.44C472.007 142.489 472.461 147.046 472.335 151.495C472.096 159.957 469.824 168.355 465.762 175.782C462.1 182.479 456.835 188.504 449.999 191.901C443.164 195.299 434.644 195.755 427.999 191.999C422.738 189.025 419.056 183.687 417.302 177.903C415.549 172.119 415.587 165.913 416.525 159.942M469.101 153.511C469.257 148.242 468.387 142.801 465.617 138.317C463.932 135.59 461.573 133.285 458.808 131.663C449.893 126.435 437.759 129.244 430.355 136.454C422.95 143.663 419.74 154.319 419.41 164.649C419.233 170.159 419.826 175.809 422.168 180.799C424.511 185.789 428.797 190.058 434.137 191.429C441.123 193.223 448.496 189.845 453.974 185.152C463.115 177.323 468.747 165.541 469.101 153.511Z" fill="#FFB61D"/>
<path fill-rule="evenodd" clip-rule="evenodd" d="M504.552 154.041C503.129 155.901 501.641 158.344 502.733 160.415C503.124 161.156 502.113 162.018 501.309 161.785C500.505 161.551 500.048 160.701 499.834 159.891C499.62 159.081 499.55 158.213 499.12 157.494C498.691 156.775 497.715 156.275 497.004 156.718C495.992 156.598 495.888 155.074 496.476 154.242C497.064 153.41 498.03 152.838 498.392 151.886C498.678 151.131 498.524 150.285 498.66 149.49C498.796 148.695 499.472 147.846 500.253 148.049C500.226 149.446 500.389 150.896 501.098 152.101C501.806 153.306 503.164 154.207 504.552 154.041Z" fill="#FFB61D"/>
<path fill-rule="evenodd" clip-rule="evenodd" d="M377.306 151.288C378.418 149.995 379.814 148.888 381.454 148.417C383.093 147.946 384.995 148.194 386.275 149.321C387.668 150.548 388.105 152.597 387.808 154.429C387.511 156.261 386.588 157.925 385.616 159.506C384.354 161.557 382.984 163.542 381.514 165.448C381.055 166.044 380.55 166.658 379.847 166.923C378.917 167.274 377.881 166.933 376.965 166.55C373.744 165.204 370.751 163.315 368.15 160.988C365.767 158.857 363.57 155.733 364.535 152.686C365.15 150.745 367.028 149.341 369.043 149.041C371.057 148.741 373.144 149.451 374.746 150.708C375.512 151.31 376.67 152.026 377.306 151.288M367.131 152.416C365.611 154.508 367.261 157.439 369.178 159.177C371.569 161.344 374.408 162.946 377.221 164.529C377.583 164.732 377.987 164.943 378.392 164.855C378.753 164.777 379.021 164.481 379.26 164.199C381.165 161.941 382.872 159.516 384.354 156.96C385.494 154.994 386.331 152.106 384.494 150.768C383.041 149.709 380.923 150.562 379.69 151.871C378.458 153.181 377.683 154.891 376.337 156.082C375.285 154.425 374.167 152.703 372.463 151.731C370.758 150.758 368.285 150.828 367.131 152.416H367.131Z" fill="#FFB61D"/>
<path fill-rule="evenodd" clip-rule="evenodd" d="M355.521 94.1031C359.008 91.3845 362.885 89.1667 366.996 87.5388C369.516 86.5408 372.392 85.7726 374.883 86.8414C378.875 88.5539 379.652 94.2853 377.552 98.0869C375.452 101.889 371.469 104.193 367.678 106.311C360.242 110.464 352.806 114.618 345.37 118.771C346.834 115.848 345.182 112.418 343.829 109.442C340.782 102.74 339.187 95.3818 339.186 88.0196C339.186 85.6939 339.36 83.2982 340.38 81.2082C341.4 79.1182 343.436 77.3849 345.761 77.3302C349.482 77.2426 351.955 81.1172 353.211 84.6208C354.31 87.689 355.086 90.873 355.521 94.1031ZM371.28 88.7746C365.267 89.9965 359.663 93.1604 355.511 97.6788C355.102 98.1238 354.307 97.9277 353.934 97.4525C353.56 96.9774 353.489 96.3401 353.418 95.7399C352.949 91.7651 351.91 87.8581 350.341 84.1759C349.467 82.1232 348.003 79.8563 345.772 79.8202C344.118 79.7934 342.68 81.1175 342.07 82.6546C341.46 84.1917 341.512 85.9028 341.629 87.5524C342.281 96.7521 344.701 105.823 348.719 114.125C355.297 110.439 361.875 106.752 368.453 103.066C370.505 101.916 372.594 100.737 374.19 99.0087C375.786 97.2799 376.835 94.8778 376.372 92.5712C375.908 90.2647 373.586 88.3062 371.28 88.7746Z" fill="#FFB61D"/>
<path fill-rule="evenodd" clip-rule="evenodd" d="M309.494 549.767C328.693 547.579 348.016 546.478 367.34 546.47C370.884 546.468 373.968 543.714 375.408 540.475C376.849 537.236 376.964 533.583 376.966 530.038C376.972 516.868 375.734 503.732 374.497 490.621C373.995 485.303 373.493 479.986 372.991 474.668C372.687 471.442 372.364 468.143 371.005 465.201C368.647 460.095 363.427 456.775 357.988 455.345C352.548 453.915 346.832 454.11 341.211 454.316C322.551 454.999 303.891 455.683 285.231 456.366C295.987 452.421 307.703 452.236 319.159 452.096C327.942 451.989 336.725 451.882 345.508 451.774C354.486 451.665 364.744 452.115 370.471 459.03C374.17 463.497 374.987 469.613 375.605 475.38C377.552 493.539 378.979 511.753 379.882 529.993C380.181 536.037 379.939 543.141 375.017 546.663C372.265 548.632 368.694 548.928 365.317 549.157C344.753 550.55 324.189 551.943 303.625 553.336C298.796 553.663 293.708 553.942 289.365 551.808C287.856 551.066 286.305 549.39 287.116 547.917C293.801 551.557 301.931 550.628 309.494 549.767Z" fill="#00160A"/>
<path fill-rule="evenodd" clip-rule="evenodd" d="M228.165 258.485C228.55 259.06 228.638 259.778 228.715 260.466C228.895 262.069 229.075 263.671 229.255 265.274C229.469 267.175 229.513 269.475 227.937 270.56C227.096 271.138 226.013 271.186 224.993 271.213C203.542 271.793 182.091 272.372 160.639 272.952C159.259 272.989 157.662 272.93 156.816 271.839C156.285 271.154 156.204 270.233 156.154 269.368C155.998 266.651 155.954 263.927 156.023 261.206C156.034 260.792 156.058 260.346 156.315 260.021C156.623 259.631 157.166 259.536 157.659 259.469C179.823 256.467 202.286 255.674 224.607 257.106C225.925 257.191 227.431 257.387 228.165 258.485M227.284 268.91C225.105 267.733 227.3 264.283 226.508 261.937C225.828 259.922 223.241 259.445 221.118 259.324C200.891 258.173 180.559 258.891 160.464 261.467C159.724 261.562 158.903 261.705 158.454 262.3C158.01 262.889 158.09 263.706 158.191 264.436C158.348 265.566 158.504 266.697 158.661 267.827C158.784 268.718 158.972 269.717 159.72 270.215C160.263 270.577 160.962 270.574 161.614 270.557C183.504 270.008 205.394 269.459 227.284 268.91Z" fill="#00160A"/>
<path fill-rule="evenodd" clip-rule="evenodd" d="M268.519 296.462C268.621 294.081 268.723 291.7 268.825 289.319C269.024 284.677 269.268 279.861 271.425 275.745C273.583 271.63 278.241 268.431 282.763 269.501C285.592 270.17 288.2 272.393 291.045 271.796C293.522 271.277 295.042 268.828 297.135 267.404C302.123 264.009 309.077 267.162 313.202 271.565C317.649 276.311 320.539 282.491 321.33 288.946C321.397 289.494 321.431 290.11 321.079 290.534C320.787 290.886 320.308 291.007 319.863 291.109C318.145 291.503 316.428 291.896 314.711 292.29C313.248 292.625 311.731 292.961 310.262 292.657C308.793 292.353 307.382 291.22 307.263 289.724C306.825 298.082 313.084 306.066 311.34 314.252C310.691 313.898 310.043 313.544 309.395 313.189C310.925 304.98 303.609 297.034 305.136 288.824C305.339 287.737 305.775 286.581 306.746 286.054C307.717 285.527 309.253 286.126 309.215 287.23C309.154 288.999 311.064 290.322 312.834 290.306C314.604 290.291 316.214 289.342 317.727 288.422C318.266 288.094 318.118 287.284 317.894 286.694C316.22 282.303 314.019 278.113 311.354 274.243C309.553 271.626 307.383 269.04 304.389 267.978C301.396 266.916 297.443 268 296.341 270.979C295.051 274.465 290.177 274.701 286.598 273.695C283.019 272.69 279.002 271.12 275.809 273.024C273.139 274.616 272.245 278.007 271.744 281.075C270.886 286.339 270.49 291.678 270.562 297.011C270.707 297.825 271.744 298.087 272.571 298.066C276.925 297.953 280.967 294.519 281.782 290.241C282.956 291.59 283.374 293.418 283.754 295.166C285.068 301.217 286.382 307.267 287.696 313.318C288.101 315.181 287.629 318.044 285.753 317.705C284.903 311.106 283.644 304.559 281.985 298.115C278.85 298.828 275.714 299.541 272.579 300.254C271.617 300.472 270.54 300.675 269.698 300.16C268.536 299.451 268.46 297.822 268.519 296.462Z" fill="#00160A"/>
<path fill-rule="evenodd" clip-rule="evenodd" d="M360.248 460.803C361.848 462.537 359.362 465.737 360.828 467.586C361.588 468.545 361.046 470.067 360.039 470.762C359.031 471.457 357.74 471.551 356.518 471.622C335.511 472.843 314.505 474.063 293.498 475.284C292.07 475.367 290.364 475.318 289.583 474.12C289.242 473.596 289.16 472.951 289.086 472.331C288.894 470.717 288.703 469.102 288.511 467.488C288.451 466.981 288.397 466.438 288.635 465.987C289.028 465.243 290.004 465.082 290.842 465.008C312.919 463.059 335.023 461.412 357.145 460.066C358.244 460 359.502 459.993 360.248 460.803ZM357.837 463.53C357.769 463.131 357.679 462.695 357.361 462.446C357.043 462.198 356.6 462.216 356.198 462.245C336.61 463.673 317.022 465.101 297.434 466.529C295.851 466.644 294.208 466.777 292.825 467.556C291.443 468.336 290.4 469.962 290.815 471.494C290.944 471.968 291.218 472.419 291.638 472.674C292.154 472.987 292.798 472.964 293.4 472.931C314.08 471.809 334.761 470.688 355.441 469.566C357.9 469.432 358.253 465.956 357.837 463.53Z" fill="#00160A"/>
<path fill-rule="evenodd" clip-rule="evenodd" d="M376.822 441.993C380.541 451.777 381.726 462.31 382.881 472.713C385.565 496.881 388.248 521.05 390.932 545.219C388.935 545.383 388.015 542.82 387.767 540.832C383.701 508.313 382.392 475.374 375.517 443.331C375.952 442.885 376.387 442.439 376.822 441.993Z" fill="#00160A"/>
<path fill-rule="evenodd" clip-rule="evenodd" d="M256.883 273.638C256.305 273.391 256.316 272.488 256.76 272.043C257.203 271.597 257.875 271.489 258.499 271.41C263.17 270.816 267.88 270.527 272.589 270.545C272.338 272.554 269.744 273.141 267.722 273.235C264.324 273.391 260.926 273.548 257.529 273.705C257.311 273.715 257.084 273.724 256.883 273.638L256.883 273.638Z" fill="#00160A"/>
<path fill-rule="evenodd" clip-rule="evenodd" d="M283.236 519.421C282.848 512.228 282.46 505.034 282.072 497.84C281.028 478.479 279.951 458.919 274.561 440.293C273.873 437.915 273.087 435.501 271.563 433.551C267.746 428.668 260.682 428.106 254.485 428.107C230.591 428.108 206.698 430.38 183.232 434.883C180.847 435.34 178.369 435.865 176.466 437.374C173.443 439.771 172.646 443.984 172.365 447.831C171.852 454.856 172.36 461.955 173.867 468.835C173.004 468.691 172.142 468.547 171.28 468.403C168.118 461.818 166.677 454.415 167.139 447.124C167.34 443.959 167.922 440.735 169.553 438.014C173.611 431.247 182.542 429.623 190.387 428.783C210.292 426.652 230.271 425.216 250.276 424.479C258.329 424.183 267.427 424.409 272.954 430.273C275.733 433.223 277.141 437.186 278.246 441.086C282.085 454.633 283.145 468.788 284.184 482.83C285.2 496.55 286.216 510.269 287.232 523.989C287.471 527.214 287.707 530.488 287.055 533.656C284.929 543.975 273.939 550.252 263.477 551.5C253.015 552.748 242.483 550.357 231.948 550.182C217.781 549.946 203.53 553.713 189.558 551.36C185.534 550.682 181.255 549.256 179.043 545.827C177.508 543.448 177.231 540.499 176.996 537.678C175.339 517.779 173.682 497.879 172.025 477.98C171.914 476.648 172.905 474.661 173.929 475.521C175.756 494.689 177.583 513.857 179.41 533.024C179.657 535.619 179.926 538.289 181.132 540.599C182.883 543.954 186.416 546.087 190.078 547.036C193.741 547.986 197.58 547.909 201.364 547.859C217.371 547.65 233.386 548.049 249.363 549.054C254.707 549.39 260.107 549.791 265.385 548.895C270.663 547.998 275.9 545.646 279.177 541.412C283.843 535.382 283.647 527.035 283.236 519.421Z" fill="#00160A"/>
<path fill-rule="evenodd" clip-rule="evenodd" d="M256.072 265.859C257.561 264.696 256.309 262.316 256.603 260.449C257.018 257.808 260.304 256.901 262.959 256.594C280.015 254.623 297.19 253.691 314.359 253.805C315.788 253.814 317.476 253.974 318.196 255.208C319.06 256.69 318.255 259.276 319.89 259.796C320.657 260.039 321.642 259.588 322.224 260.145C323.185 261.066 321.394 262.311 320.067 262.43C299.976 264.233 279.84 265.552 259.685 266.387C258.452 266.438 257.144 266.47 256.072 265.859M316.088 257.539C315.619 256.359 314.048 256.186 312.778 256.205C296.591 256.451 280.413 257.251 264.281 258.603C262.389 258.762 260.157 259.156 259.368 260.883C258.99 261.865 259.712 262.994 260.665 263.439C261.619 263.885 262.72 263.827 263.771 263.761C279.886 262.738 296.001 261.716 312.116 260.694C313.108 260.631 314.142 260.556 314.997 260.049C315.852 259.542 316.455 258.462 316.088 257.539Z" fill="#00160A"/>
<path fill-rule="evenodd" clip-rule="evenodd" d="M337.809 494.013C340.295 495.988 339.232 500.314 341.394 502.639C342.399 503.719 343.904 504.141 345.321 504.556C346.231 504.822 347.358 505.491 347.068 506.394C346.772 507.319 345.424 507.17 344.52 506.816C341.566 505.659 338.236 503.735 338.073 500.567C337.954 498.255 337.267 495.974 336.089 493.981C336.42 493.42 337.299 493.608 337.809 494.013V494.013Z" fill="#00160A"/>
<path fill-rule="evenodd" clip-rule="evenodd" d="M349.563 526.772C348.753 516.347 347.944 505.923 347.134 495.498C347.015 493.966 346.88 492.377 346.121 491.04C345.362 489.704 343.79 488.697 342.306 489.095C335.59 490.897 328.617 491.732 321.666 491.567C315.588 491.423 309.369 490.535 303.522 492.2C303.631 495.095 303.739 497.991 303.848 500.886C303.88 501.731 303.928 502.628 304.409 503.324C305.757 505.275 309.105 503.789 309.865 501.542C310.626 499.295 309.939 496.838 310.07 494.47C310.093 494.05 310.177 493.573 310.534 493.351C311.292 492.88 312.021 494.006 312.216 494.877C312.773 497.376 313.33 499.991 312.672 502.465C312.014 504.938 309.719 507.18 307.18 506.853C304.55 506.514 303.473 510.109 303.41 512.76C303.282 518.052 303.155 523.344 303.028 528.636C302.988 530.301 303.588 532.602 305.243 532.415C309.517 531.93 313.79 531.446 318.064 530.961C319.097 530.844 320.208 530.741 321.116 531.247C322.024 531.752 322.505 533.127 321.76 533.853C316.741 534.293 311.721 534.733 306.702 535.172C305.236 535.301 303.714 535.423 302.331 534.92C300.948 534.417 299.744 533.102 299.869 531.635C301.104 517.24 301.38 502.762 300.696 488.33C300.55 485.259 304.29 483.701 307.311 483.134C316.901 481.337 326.68 480.557 336.433 480.813C339.703 480.898 343.267 481.222 345.638 483.475C348.053 485.769 348.526 489.383 348.859 492.697C350.107 505.115 351.354 517.534 352.602 529.952C352.669 530.622 352.685 531.418 352.149 531.825C351.83 532.069 351.401 532.095 351 532.112C346.837 532.285 342.675 532.458 338.513 532.631C336.307 532.722 333.934 532.77 332.098 531.545C330.839 530.704 330.006 529.37 329.275 528.044C327.52 524.865 326.118 521.491 325.102 518.005C323.51 521.99 322.502 526.209 322.121 530.484C320.109 530.701 319.735 527.683 320.203 525.715C321.168 521.653 322.133 517.591 323.098 513.529C323.245 512.911 323.479 512.194 324.085 512.003C324.977 511.722 325.662 512.791 325.988 513.668C327.348 517.321 328.707 520.974 330.067 524.627C331.237 527.771 334.611 529.661 337.943 530.048C341.276 530.435 344.615 529.596 347.865 528.764C348.508 528.6 349.238 528.362 349.488 527.748C349.612 527.443 349.588 527.1 349.563 526.772ZM304.281 488.603C307.295 488.642 310.309 488.681 313.323 488.72C315.588 488.749 317.853 488.778 320.117 488.736C328.292 488.582 336.448 487.485 344.373 485.475C342.605 483.66 339.769 483.558 337.236 483.604C328.171 483.766 319.113 484.293 310.09 485.184C307.675 485.422 304.674 486.209 304.281 488.603L304.281 488.603Z" fill="#00160A"/>
<path fill-rule="evenodd" clip-rule="evenodd" d="M290.789 480.796C290.616 479.854 291.839 479.339 292.785 479.192C303.721 477.497 314.803 476.748 325.867 476.956C326.026 476.959 326.189 476.963 326.336 477.024C326.855 477.241 326.83 478.058 326.418 478.441C326.006 478.824 325.399 478.889 324.838 478.931C314.303 479.721 303.613 479.315 293.291 481.568C292.332 481.778 290.965 481.761 290.789 480.796L290.789 480.796Z" fill="#00160A"/>
<path fill-rule="evenodd" clip-rule="evenodd" d="M535.345 458.155C535.948 456.73 536.615 455.226 537.897 454.36C538.978 453.63 540.333 453.469 541.63 453.328C545.48 452.91 549.331 452.492 553.181 452.074C555.085 451.867 557.542 451.064 557.47 449.15C557.236 442.97 557.715 435.851 562.625 432.089C567.116 428.648 573.842 429.592 578.451 432.875C583.06 436.158 585.98 441.27 588.498 446.338C589.613 448.581 592.667 448.99 595.135 448.558C597.603 448.125 600.105 447.154 602.54 447.745C606.289 448.656 608.184 452.75 609.473 456.387C615.939 474.637 620.327 493.662 628.37 511.274C631.377 517.862 630.425 526.081 625.992 531.807C625.445 527.26 626.206 522.564 628.163 518.424C629.084 516.473 626.017 515.191 623.859 515.196C601.873 515.252 579.794 515.315 558.051 518.577C557.387 518.677 556.682 518.799 556.187 519.252C555.705 519.693 555.518 520.36 555.352 520.991C554.678 523.552 554.003 526.113 553.329 528.674C552.907 530.278 553.172 532.769 554.823 532.601C576.341 530.422 597.975 529.383 619.603 529.49C621.877 529.501 624.982 530.403 624.688 532.659C601.647 532.93 578.522 533.208 555.731 536.6C552.102 537.14 549.596 532.646 550.008 529.001C550.42 525.355 552.511 522.084 553.1 518.463C553.608 515.342 552.972 512.158 552.288 509.07C551.201 504.162 549.987 499.282 548.647 494.437C547.338 489.709 545.911 485.015 544.483 480.321C542.323 473.221 540.164 466.122 538.004 459.022C535.034 463.37 533.711 468.816 534.354 474.042C534.802 477.681 536.151 481.137 537.162 484.661C538.607 489.699 539.366 494.905 540.121 500.091C541.607 510.308 543.093 520.524 544.58 530.74C544.799 532.244 544.367 534.458 542.864 534.236C536.182 513.566 538.016 490.712 530.13 470.47C531.869 466.365 533.607 462.26 535.345 458.155ZM585.111 461.905C587.289 460.694 588.417 457.867 587.67 455.489C586.923 453.112 584.382 451.437 581.903 451.688C575.824 452.304 569.744 452.92 563.665 453.536C563.104 453.592 562.476 453.686 562.138 454.138C561.873 454.494 561.867 454.977 561.893 455.421C562.055 458.199 563.019 460.925 564.639 463.187C565.898 464.945 567.639 467.049 566.656 468.975C565.428 471.381 561.391 470.033 560.39 467.523C559.388 465.014 560.101 462.182 559.915 459.487C559.729 456.792 557.791 453.689 555.127 454.138C550.758 454.873 546.388 455.609 542.019 456.344C541.391 456.45 540.573 456.837 540.757 457.446C546.077 475.058 551.398 492.669 556.718 510.28C557.381 512.475 558.876 515.192 561.109 514.671C581.602 509.885 603.211 514.411 624.019 511.266C617.786 491.72 611.336 472.243 604.672 452.84C604.475 452.267 604.253 451.659 603.764 451.301C603.223 450.906 602.495 450.917 601.825 450.946C598.704 451.078 595.583 451.21 592.461 451.343C591.226 451.395 589.543 451.983 589.814 453.19C590.662 456.971 591.51 460.752 592.358 464.533C592.504 465.184 592.647 465.881 592.405 466.502C591.745 468.192 589.256 467.765 587.596 467.034C586.506 466.554 585.361 466.029 584.687 465.047C584.014 464.065 584.071 462.483 585.111 461.905ZM577.067 434.47C574.673 432.714 571.525 431.448 568.762 432.535C567.799 432.915 566.964 433.552 566.142 434.181C564.678 435.301 563.17 436.473 562.307 438.102C561.503 439.617 561.338 441.378 561.188 443.086C561.057 444.579 560.925 446.073 560.794 447.566C560.712 448.492 560.679 449.555 561.351 450.198C561.995 450.815 563.006 450.771 563.894 450.686C570.252 450.081 576.61 449.477 582.968 448.872C583.874 448.786 584.982 448.539 585.22 447.661C585.314 447.314 585.239 446.946 585.154 446.597C583.982 441.778 581.065 437.404 577.067 434.47M574.686 450.267C574.045 450.447 574.757 451.647 575.223 451.172C575.818 450.928 575.158 449.81 574.657 450.213L574.686 450.267Z" fill="#FFB61D"/>
<path fill-rule="evenodd" clip-rule="evenodd" d="M373.097 307.332C372.986 306.96 373.208 306.57 373.469 306.283C374.75 304.872 376.894 304.767 378.8 304.763C390.353 304.736 401.906 304.709 413.459 304.682C414.272 304.68 415.144 304.696 415.807 305.166C416.471 305.636 416.73 306.744 416.093 307.248C415.753 307.517 415.286 307.533 414.853 307.538C401.431 307.687 388.009 307.836 374.588 307.985C374.003 307.992 373.264 307.892 373.097 307.332Z" fill="#00160A"/>
<path fill-rule="evenodd" clip-rule="evenodd" d="M377.379 319.259C376.683 318.859 376.779 317.736 377.365 317.186C377.95 316.637 378.803 316.508 379.6 316.411C384.383 315.835 389.192 315.518 393.999 315.201C396.647 315.027 399.295 314.852 401.943 314.678C405.386 314.451 408.829 314.224 412.272 313.997C413.366 313.925 414.587 313.894 415.41 314.617C416.234 315.34 416.033 317.08 414.939 317.147C402.788 317.9 390.636 318.653 378.485 319.406C378.108 319.429 377.706 319.447 377.379 319.259L377.379 319.259Z" fill="#00160A"/>
<path fill-rule="evenodd" clip-rule="evenodd" d="M442.514 334.969C443.432 333.225 444.428 331.395 446.118 330.378C447.807 329.361 450.398 329.571 451.307 331.32C452.275 333.182 450.835 335.426 449.144 336.669C447.454 337.911 445.375 338.787 444.276 340.575C450.213 344.487 456.15 348.4 462.087 352.312C466.737 355.376 471.999 359.752 471.047 365.239C470.489 368.456 467.762 370.957 464.726 372.157C461.689 373.357 458.35 373.483 455.087 373.577C433.151 374.208 411.194 374.097 389.266 373.243C387.745 373.184 386.048 373.042 385.035 371.906C384.25 371.026 384.088 369.77 383.961 368.598C382.699 356.926 381.437 345.255 380.174 333.584C380.128 333.153 380.083 332.703 380.238 332.297C380.887 330.593 383.436 331.643 384.862 332.781C394.956 340.837 411.093 339.891 420.176 330.709C422.371 328.491 426.107 328.777 428.927 330.115C431.746 331.453 434.105 333.629 436.934 334.947C436.632 333.312 438.074 331.586 439.737 331.593C441.4 331.6 442.828 333.337 442.514 334.969ZM443.755 342.489C443.035 339.84 439.12 339.285 436.961 340.98C434.802 342.675 434.102 345.627 433.914 348.366C433.844 349.387 432.164 349.489 431.589 348.643C431.014 347.796 431.247 346.655 431.566 345.682C432.41 343.115 433.708 340.698 435.383 338.577C436.212 337.527 434.997 336.108 433.902 335.338C430.04 332.623 424.571 329.944 421.028 333.064C411.32 341.615 395.835 342.754 384.98 335.716C385.11 344.477 385.755 353.23 386.912 361.916C387.029 362.79 387.179 363.725 387.783 364.369C388.583 365.22 389.892 365.279 391.061 365.281C409.917 365.305 428.774 365.329 447.631 365.353C449.466 365.355 451.961 364.7 451.818 362.87C451.485 358.613 453.37 354.243 456.695 351.563C454.079 349.663 451.464 347.764 448.849 345.864C448.051 345.284 447.216 344.689 446.244 344.522C443.31 344.019 441.35 347.383 440.312 350.173C438.722 347.33 440.575 343.194 443.755 342.489ZM394.472 371.559C414.108 371.713 433.746 371.68 453.382 371.46C458.957 371.398 465.465 370.832 468.488 366.148C441.373 367.339 414.219 367.634 387.084 367.032C386.746 370.289 391.197 371.534 394.472 371.559M461.674 354.056C461.09 353.685 460.485 353.307 459.804 353.19C457.747 352.837 456.126 354.891 455.233 356.776C454.716 357.866 454.267 358.988 453.889 360.134C453.601 361.007 453.353 361.935 453.534 362.836C453.715 363.737 454.453 364.59 455.372 364.6C458.711 364.638 462.051 364.603 465.389 364.494C466.176 364.468 467.032 364.412 467.622 363.89C468.315 363.275 468.4 362.214 468.226 361.304C467.597 358.008 464.508 355.852 461.674 354.056ZM449.878 332.739C449.842 331.722 448.484 331.205 447.545 331.598C446.607 331.99 446.029 332.923 445.514 333.8C444.891 334.861 444.268 335.921 443.645 336.982C443.318 337.538 443.141 338.484 443.77 338.623C445.428 337.245 447.086 335.867 448.744 334.489C449.299 334.028 449.904 333.46 449.878 332.739ZM439.135 334.396C438.853 335.767 439.557 337.282 440.786 337.952C441.212 336.54 440.962 334.94 440.126 333.724C440.074 333.381 439.608 333.182 439.324 333.383C439.105 333.66 439.027 334.042 439.12 334.382L439.135 334.396Z" fill="#00160A"/>
<path fill-rule="evenodd" clip-rule="evenodd" d="M371.62 293.961C371.122 291.548 370.623 289.135 370.125 286.722C369.931 285.785 369.753 284.744 370.245 283.923C370.916 282.802 372.45 282.653 373.755 282.631C405.807 282.073 437.871 282.195 469.918 282.996C472.105 283.051 473.9 284.939 474.565 287.022C475.23 289.106 475.011 291.355 474.786 293.531C474.664 294.706 474.47 296.017 473.532 296.736C472.765 297.326 471.716 297.341 470.748 297.33C438.56 296.979 406.372 296.627 374.183 296.276C373.653 296.27 373.093 296.255 372.644 295.973C371.988 295.56 371.777 294.719 371.62 293.961ZM376.047 284.747C373.678 284.73 371.998 287.544 372.59 289.838C373.182 292.132 375.399 293.711 377.701 294.269C380.004 294.827 382.415 294.558 384.774 294.337C413.842 291.62 443.237 296.813 472.284 293.883C472.436 292.115 472.581 290.288 472.012 288.608C471.443 286.928 469.96 285.423 468.186 285.41C437.473 285.189 406.76 284.968 376.047 284.747Z" fill="#00160A"/>
<path fill-rule="evenodd" clip-rule="evenodd" d="M178.348 363.842C177.275 365.875 175.796 367.941 173.578 368.546C169.353 369.698 165.86 365.008 164.707 360.784C162.907 354.189 163.363 347 165.98 340.685C167.381 337.307 166.213 333.312 164.018 330.388C159.877 324.871 152.152 322.456 145.515 324.333C138.878 326.209 133.64 332.113 132.252 338.87C132.035 339.927 132.188 341.413 133.258 341.563C138.592 342.31 141.041 348.57 141.853 353.895C142.473 357.961 142.743 362.22 141.363 366.095C139.984 369.97 136.609 373.373 132.508 373.685C128.828 371.207 126.057 367.408 124.821 363.147C122.523 355.222 125.509 346.821 128.591 339.167C130.473 334.496 132.493 329.712 136.067 326.165C143.706 318.581 157.972 319.481 164.598 327.965C167.146 331.229 168.609 335.283 171.433 338.311C173.562 340.593 176.377 342.191 178.319 344.634C182.538 349.942 181.512 357.846 178.348 363.842ZM127.158 349.191C125.224 354.522 125.763 360.695 128.592 365.61C129.056 366.418 129.609 367.221 130.421 367.678C131.233 368.134 132.365 368.141 133.007 367.466C134.931 365.444 135.172 362.385 135.165 359.594C135.158 356.293 134.954 352.992 134.556 349.715C134.393 348.374 134.115 346.891 133.03 346.085C131.945 345.28 129.909 345.954 130.079 347.294C130.575 351.195 131.071 355.095 131.566 358.996C131.679 359.883 131.779 360.843 131.334 361.619C130.889 362.394 129.661 362.756 129.098 362.061C127.64 359.084 127.2 355.62 127.868 352.373C128.109 351.206 128.275 349.608 127.158 349.191M171.812 364.659C172.305 364.274 172.535 363.649 172.719 363.052C174.166 358.356 174.181 353.23 172.763 348.525C172.224 346.736 170.764 344.644 168.994 345.243C167.972 345.589 167.453 346.709 167.128 347.738C165.648 352.415 165.845 357.603 167.674 362.154C168.025 363.026 168.459 363.908 169.201 364.484C169.943 365.06 171.071 365.237 171.812 364.659ZM137.093 347.781C138.382 354.313 138.108 361.148 136.3 367.556C136.134 368.146 136.803 368.605 137.363 368.854C140.075 362.277 140.418 354.751 138.317 347.954C137.968 347.705 137.497 347.639 137.093 347.781ZM174.717 346.017C174.316 346.656 173.916 347.296 173.515 347.935C174.836 347.712 175.44 349.514 175.511 350.851C175.674 353.943 175.837 357.034 176.001 360.126C177.231 359.664 177.453 358.05 177.476 356.736C177.528 353.778 177.579 350.82 177.631 347.863C177.188 347.811 176.745 347.759 176.302 347.707C176.257 346.869 175.55 346.116 174.717 346.017Z" fill="#00160A"/>
<path fill-rule="evenodd" clip-rule="evenodd" d="M319.719 351.628C310.907 351.207 302.057 351.589 293.314 352.768C292.54 352.873 291.674 352.961 291.052 352.489C290.43 352.016 290.498 350.764 291.274 350.679C300.018 349.718 308.799 349.1 317.592 348.826C318.548 348.796 319.619 348.813 320.3 349.485C320.981 350.156 320.675 351.673 319.719 351.628Z" fill="#00160A"/>
<path fill-rule="evenodd" clip-rule="evenodd" d="M115.02 316.441C117.521 316.206 120.023 315.971 122.525 315.736C123.785 315.617 125.045 315.499 126.305 315.381C134.321 314.628 142.337 313.875 150.36 313.205C150.675 313.179 151.005 313.154 151.297 313.276C152.165 313.636 152.031 315.039 151.275 315.597C150.518 316.155 149.495 316.123 148.555 316.092C136.739 315.699 124.963 319.25 113.202 318.049C112.438 317.971 111.438 317.577 111.573 316.82C112.717 316.657 113.869 316.549 115.02 316.441Z" fill="#00160A"/>
<path fill-rule="evenodd" clip-rule="evenodd" d="M384.468 576.101C384.074 572.66 383.792 568.915 381.479 566.338C379.703 564.36 380.622 560.684 383.119 559.774C385.616 558.864 388.684 561.087 388.598 563.743C388.568 564.655 388.236 565.526 387.977 566.401C386.213 572.377 387.851 578.808 390.009 584.654C392.194 590.574 395.538 596.875 401.542 598.821C408.486 601.073 416.171 596.09 419.249 589.471C422.327 582.851 421.859 575.165 420.784 567.945C420.676 567.22 420.482 566.384 419.817 566.077C417.116 564.83 416.706 560.448 419.129 558.721C421.552 556.995 425.56 558.813 425.857 561.774C425.957 562.778 425.701 563.778 425.51 564.769C424.183 571.646 425.938 578.855 424.483 585.706C423.573 589.995 421.39 594.006 418.282 597.1C414.987 600.38 410.536 602.642 405.887 602.721C399.627 602.827 393.773 598.945 390.235 593.779C386.696 588.614 385.179 582.322 384.468 576.101Z" fill="#00160A"/>
<path fill-rule="evenodd" clip-rule="evenodd" d="M201.914 293.585C202.088 295.942 202.254 298.37 201.52 300.617C200.785 302.863 198.919 304.91 196.564 305.112C184.425 306.156 172.284 307.2 160.122 307.919C143.537 308.901 126.924 309.279 110.315 309.657C109.722 309.671 109.088 309.673 108.593 309.346C107.851 308.856 107.712 307.844 107.644 306.957C107.464 304.635 107.285 302.313 107.105 299.992C107.051 299.285 107.009 298.523 107.39 297.925C107.947 297.05 109.14 296.9 110.176 296.838C140.724 295.028 171.315 293.943 201.914 293.585ZM196.803 301.729C198.755 301.599 199.15 298.528 197.719 297.194C196.288 295.861 194.115 295.831 192.16 295.88C167.019 296.505 141.869 297.13 116.779 298.836C114.972 298.959 113.092 299.109 111.53 300.026C109.968 300.943 108.84 302.87 109.437 304.58C110.285 307.009 113.562 307.276 116.129 307.105C143.021 305.313 169.912 303.521 196.803 301.729Z" fill="#00160A"/>
<path fill-rule="evenodd" clip-rule="evenodd" d="M170.701 352.256C170.725 352.894 170.749 353.533 170.773 354.172C170.823 355.501 170.873 356.839 170.681 358.155C169.014 357.978 168.497 355.834 168.4 354.161C168.353 353.365 168.338 352.475 168.871 351.882C169.404 351.29 170.67 351.459 170.701 352.256L170.701 352.256Z" fill="#00160A"/>
<path fill-rule="evenodd" clip-rule="evenodd" d="M290.734 357.698C292.369 356.188 294.856 356.235 297.081 356.298C304.12 356.498 311.18 355.954 318.105 354.678C318.921 354.528 319.36 355.798 318.851 356.454C318.343 357.11 317.424 357.247 316.598 357.331C308.793 358.125 300.955 358.595 293.111 358.741C292.177 358.758 290.991 358.597 290.734 357.698Z" fill="#00160A"/>
<path fill-rule="evenodd" clip-rule="evenodd" d="M553.509 384.087C552.738 386.698 550.173 388.313 547.728 389.509C535.488 395.495 521.098 396.961 507.903 393.565C503.471 392.424 498.422 389.786 498.232 385.214C498.093 381.852 500.776 379.035 503.617 377.234C507.976 374.47 513.057 373.074 518.123 372.09C527.897 370.191 538.492 369.799 547.34 374.366C551.046 376.279 554.691 380.087 553.509 384.087M501.254 384.705C501.261 388.398 505.381 390.561 508.953 391.498C521.358 394.751 534.928 393.347 546.404 387.622C548.245 386.704 550.189 385.493 550.774 383.519C551.56 380.869 549.506 378.2 547.228 376.634C540.37 371.922 531.3 372.567 523.027 373.452C516.37 374.165 509.275 375.096 504.2 379.464C502.632 380.813 501.249 382.636 501.254 384.705L501.254 384.705Z" fill="#00160A"/>
<path fill-rule="evenodd" clip-rule="evenodd" d="M193.373 167.775C192.955 165.401 194.593 163.041 196.702 161.875C198.812 160.709 201.299 160.484 203.705 160.343C225.159 159.08 246.579 162.526 268.041 163.659C270.803 163.804 273.716 163.957 276.039 165.458C278.363 166.958 279.727 170.326 278.12 172.577C277.342 173.666 276.057 174.271 274.781 174.674C271.102 175.836 267.154 175.682 263.298 175.516C243.235 174.653 223.171 173.791 203.108 172.928C199.124 172.757 194.063 171.701 193.373 167.775M196.126 164.334C194.993 165.932 195.942 168.316 197.58 169.39C199.217 170.465 201.281 170.586 203.238 170.674C224.502 171.631 245.766 172.588 267.029 173.545C269.101 173.638 271.396 173.659 272.965 172.303C274.535 170.948 274.328 167.715 272.28 167.39C248.635 163.63 224.641 162.069 200.708 162.733C199.028 162.779 197.099 162.963 196.126 164.334" fill="#00160A"/>
<path fill-rule="evenodd" clip-rule="evenodd" d="M428.636 147.171C431.899 140.371 437.192 133.361 444.712 132.781C449.722 132.395 455.038 133.271 459.003 136.358C466.194 141.956 466.695 152.811 464.125 161.555C461.096 171.861 454.336 181.406 444.64 186.029C442.327 187.131 439.812 187.955 437.252 187.855C430.449 187.588 425.495 180.904 424.03 174.256C422.023 165.143 424.599 155.584 428.636 147.171M437.096 185.366C442.124 186.05 446.863 182.847 450.41 179.218C457.059 172.416 461.523 163.51 462.994 154.112C463.418 151.404 463.594 148.594 462.857 145.954C461.408 140.76 456.485 137.007 451.202 135.928C446.122 134.889 440.54 136.128 436.624 139.527C434.742 141.16 433.28 143.223 432.004 145.363C427.841 152.345 425.475 160.469 425.765 168.593C425.896 172.262 426.591 175.993 428.449 179.16C430.307 182.328 433.457 184.87 437.096 185.366Z" fill="#FFB61D"/>
<path fill-rule="evenodd" clip-rule="evenodd" d="M263.726 435.789C264.395 435.753 265.112 435.73 265.678 436.087C266.378 436.529 266.633 437.409 266.835 438.212C267.276 439.969 267.719 441.797 267.364 443.574C267.009 445.351 265.607 447.057 263.797 447.136C259.18 447.338 254.563 447.54 249.946 447.742C248.135 447.821 246.014 448.079 245.114 449.652C244.504 450.719 244.685 452.042 244.885 453.254C245.451 456.689 247.051 461.032 250.53 460.906C252.844 460.822 254.907 462.578 255.903 464.669C256.899 466.759 257.048 469.138 257.181 471.45C257.305 473.626 256.75 476.601 254.571 476.655C252.813 476.699 252.329 479.074 252.385 480.831C252.773 493.051 253.161 505.271 253.549 517.492C253.612 519.461 251.088 520.289 249.128 520.487C232.703 522.145 216.106 522.101 199.69 520.356C199.101 520.294 198.349 520.063 198.336 519.471C198.032 505.663 197.729 491.855 197.425 478.047C197.407 477.243 197.012 476.13 196.236 476.342C193.789 477.011 191.329 474.74 190.823 472.255C190.316 469.77 191.185 467.233 192.042 464.846C192.437 463.742 192.882 462.572 193.829 461.881C195.85 460.404 199.588 461.455 200.494 459.121C200.643 458.735 200.672 458.313 200.658 457.899C200.531 454.293 197.173 451.447 193.636 450.734C190.099 450.021 186.453 450.959 183.009 452.034C182.219 449.055 182.017 445.922 182.417 442.867C182.511 442.145 182.658 441.387 183.142 440.845C183.833 440.072 184.984 439.964 186.019 439.909C211.922 438.536 237.824 437.162 263.726 435.789ZM194.666 463.764C194.168 464.343 194.057 465.149 193.968 465.907C193.734 467.883 193.5 469.858 193.266 471.834C193.217 472.249 193.171 472.688 193.338 473.072C193.697 473.893 194.781 474.034 195.677 474.057C200.432 474.175 205.187 474.293 209.942 474.411C210.744 474.431 211.585 474.442 212.298 474.073C213.443 473.48 213.913 471.867 213.267 470.75C213.849 470.691 214.431 470.631 215.013 470.571C214.756 472.294 216.512 473.737 218.235 473.99C219.958 474.244 221.69 473.717 223.427 473.58C227.068 473.292 230.703 474.72 234.33 474.292C234.712 474.247 235.119 474.167 235.386 473.891C235.735 473.529 235.729 472.964 235.7 472.463C235.562 470.055 235.425 467.647 235.288 465.24C235.244 464.482 235.179 463.666 234.692 463.084C233.997 462.252 232.75 462.226 231.667 462.268C226.432 462.47 221.197 462.673 215.962 462.876C215.596 462.89 215.192 462.921 214.938 463.184C214.654 463.48 214.674 463.944 214.712 464.352C214.888 466.226 215.064 468.099 215.24 469.973C214.546 470.04 213.864 470.243 213.246 470.568C213.092 469.091 212.937 467.615 212.783 466.139C212.642 464.793 212.114 463.069 210.761 463.051C206.441 462.993 202.12 462.935 197.799 462.878C196.676 462.863 195.399 462.913 194.666 463.764ZM219.559 478.288C219.487 477.294 219.056 475.979 218.065 476.085C211.904 476.748 205.668 476.71 199.516 475.972C199.667 489.379 199.917 502.784 200.265 516.186C200.31 517.911 202.487 518.602 204.203 518.778C209.302 519.301 214.437 519.479 219.56 519.311C219.98 519.298 220.435 519.269 220.755 518.996C221.175 518.639 221.203 518.01 221.196 517.458C221.05 504.389 220.504 491.324 219.559 478.288ZM250.369 477.55C250.2 477.261 249.816 477.201 249.483 477.173C244.183 476.724 238.856 476.598 233.541 476.795C233.059 476.813 232.543 476.846 232.162 477.14C231.582 477.588 231.547 478.435 231.563 479.167C231.856 492.548 232.149 505.928 232.442 519.308C238.294 519.874 244.251 519.321 249.899 517.689C250.25 517.587 250.623 517.467 250.85 517.18C251.095 516.871 251.112 516.445 251.117 516.051C251.228 507.442 251.005 498.833 250.783 490.226C250.678 486.172 250.574 482.117 250.469 478.062C250.464 477.886 250.458 477.702 250.369 477.55ZM184.651 443.63C183.635 445.228 184.728 447.483 186.398 448.376C188.068 449.269 190.069 449.182 191.959 449.072C203.397 448.41 214.834 447.747 226.271 447.084C237.178 446.452 248.086 445.82 258.976 444.934C260.571 444.804 262.247 444.641 263.564 443.733C264.882 442.825 265.648 440.906 264.764 439.572C263.877 438.234 261.971 438.173 260.367 438.256C236.602 439.481 212.837 440.707 189.072 441.933C187.43 442.017 185.534 442.243 184.651 443.63M230.366 518.996C229.562 505.935 229.403 492.834 229.889 479.756C229.917 479.005 229.942 478.224 229.642 477.534C228.766 475.521 225.951 475.527 223.781 475.863C222.789 476.016 221.523 476.49 221.597 477.491C222.527 490 223.458 502.53 223.249 515.071C223.221 516.732 224.172 518.373 225.626 519.175C227.081 519.977 228.976 519.906 230.366 518.996ZM254.91 470.777C254.628 469.051 254.332 467.287 253.491 465.754C252.649 464.221 251.142 462.936 249.395 462.849C246.077 462.684 242.758 462.518 239.439 462.353C238.575 462.31 237.382 462.571 237.423 463.435C237.55 466.061 237.676 468.687 237.803 471.313C237.858 472.46 238.072 473.844 239.134 474.279C239.476 474.419 239.856 474.429 240.226 474.438C244.553 474.537 248.88 474.635 253.206 474.734C254.032 474.753 254.724 474.027 254.95 473.233C255.176 472.438 255.044 471.592 254.91 470.777ZM233.961 457.835C233.527 456.011 233.076 454.145 232.039 452.583C231.003 451.022 229.244 449.802 227.374 449.939C224.493 450.151 221.612 450.363 218.731 450.574C216.936 450.706 214.904 450.965 213.852 452.425C212.579 454.191 213.452 456.655 213.108 458.804C212.988 459.559 213.578 460.283 214.284 460.576C214.99 460.869 215.783 460.835 216.547 460.796C221.704 460.53 226.861 460.265 232.019 459.999C232.776 459.96 233.685 459.822 233.986 459.127C234.161 458.724 234.062 458.262 233.961 457.835ZM242.998 454.532C242.017 453.188 242.041 451.196 243.055 449.876C241.247 448.754 238.716 448.962 237.115 450.364C235.514 451.766 234.975 454.248 235.85 456.188C236.158 456.872 235.982 457.682 236.199 458.4C236.508 459.42 237.575 460.06 238.632 460.191C239.69 460.322 240.751 460.045 241.78 459.769C243.131 459.408 244.774 458.686 244.761 457.288C244.751 456.173 243.656 455.432 242.998 454.532ZM210.769 459.317C211.368 457.358 210.563 455.124 209.025 453.771C207.487 452.417 205.333 451.89 203.293 452.073C202.473 452.147 201.618 452.35 201.025 452.921C200.432 453.491 200.219 454.518 200.754 455.144C201.149 455.606 201.825 455.741 202.238 456.187C202.869 456.868 202.656 457.955 202.945 458.837C203.598 460.829 206.303 461.017 208.391 460.827C209.105 460.762 209.894 460.66 210.364 460.119C210.562 459.891 210.681 459.606 210.769 459.317ZM211.107 452.727C211.591 452.258 211.679 451.435 211.305 450.875C210.471 450.627 209.539 451.123 209.101 451.874C209.427 452.621 210.343 453.052 211.126 452.828M234.892 450.646C235.013 450.319 234.942 449.928 234.712 449.665C233.921 449.415 233 449.64 232.412 450.225C233.017 450.911 234.117 451.096 234.913 450.646L234.892 450.646Z" fill="#00160A"/>
<path fill-rule="evenodd" clip-rule="evenodd" d="M553.737 395.121C528.381 405.036 503.026 414.951 477.671 424.866C466.764 429.131 454.146 435.533 452.976 447.185C467.792 435.786 486.095 428.984 504.759 427.939C491.865 444.185 475.583 457.729 457.262 467.451C440.808 476.182 419.977 485.494 418.565 504.068C436.236 483.026 463.405 470.287 490.882 470.159C473.303 495.907 445.115 514.169 414.431 519.69C415.484 527.602 416.537 535.514 417.59 543.426C428.016 543.057 438.505 544.549 448.414 547.809C455.471 578.126 462.527 608.443 469.584 638.76C471.321 646.22 472.85 654.793 468.281 660.942C463.749 667.041 455.19 668.09 447.611 668.629C417.737 670.753 387.863 672.876 357.99 675C354.413 658.796 350.836 642.591 347.259 626.387C296.869 631.066 246.479 635.745 196.088 640.424C185.476 641.409 174.253 642.293 164.651 637.67C129.822 620.901 87.59 653.358 50.8034 641.484C83.1243 640.874 115.346 635.236 145.953 624.835C157.054 621.063 170.344 610.731 164.545 600.542C136.16 620.348 99.7396 628.254 65.6977 622.001C67.6965 588.942 66.4111 555.685 61.8665 522.879C86.0886 519.414 109.96 513.5 132.998 505.256C139.406 502.963 145.999 500.324 150.562 495.275C155.126 490.225 156.971 482.067 152.961 476.567C117.921 495.239 77.4622 503.595 37.8913 500.334C39.9562 545.109 42.021 589.883 44.0858 634.658C38.2368 589.916 35.1349 544.814 34.8034 499.692C55.1728 497.886 75.5421 496.08 95.9115 494.274C92.6363 479.734 89.3404 464.862 91.0229 450.054C92.7054 435.245 100.327 420.249 113.724 413.718C103.589 392.101 88.2711 372.935 69.4202 358.283C47.3214 341.107 18.9094 328.158 8.81777 302.052C2.14528 284.791 5.41821 264.713 14.6574 248.678C23.8965 232.644 38.5367 220.292 54.4489 210.844C32.5417 205.213 15.9479 183.375 16.3919 160.76C16.8359 138.145 34.2739 116.976 56.3853 112.209C45.9602 99.7855 29.5447 94.0913 17.5542 83.1713C3.58613 70.4504 -3.43293 49.9301 1.65506 31.7356C6.74306 13.541 24.6574 -0.77414 43.5327 0.0324869C59.0372 0.695059 72.6814 10.5013 83.5039 21.6233C100.288 38.8723 112.771 60.2757 119.52 83.3777C124.019 98.7759 140.505 106.609 154.427 114.578C168.35 122.547 182.808 136.428 178.886 151.983C173.7 130.698 156.285 112.856 135.132 107.155C124.11 104.185 120.093 91.0687 116.547 80.2179C109.648 59.1025 97.8701 39.5977 82.3957 23.6603C70.7664 11.6831 55.5618 1.23166 38.8919 2.13147C21.7313 3.05778 6.60376 17.017 2.68042 33.7488C-1.24292 50.4806 5.33508 68.8143 17.8566 80.5853C30.6106 92.5749 48.8564 98.4478 59.1388 112.614C36.8378 117.146 19.2068 138.608 19.0897 161.364C18.9726 184.121 36.3817 205.763 58.6349 210.524C42.9526 219.704 28.2784 231.365 18.603 246.746C8.92765 262.128 4.78006 281.65 10.5693 298.875C23.9595 338.715 79.771 348.224 99.4667 385.353C104.801 367.832 96.9817 349.41 92.9628 331.541C88.9439 313.673 91.2156 290.727 107.875 283.118C103.006 259.651 98.1373 236.185 93.2685 212.718C89.6405 195.232 87.8202 173.078 102.863 163.452C92.264 160.165 82.8573 153.163 76.6665 143.954C83.3519 154.187 96.2282 159.993 108.324 158.229C93.0386 125.095 76.0907 92.7276 57.5649 61.2901C77.5267 91.3892 95.1934 123.01 110.361 155.788C180.515 153.889 250.778 156.051 320.682 162.257C329.963 163.081 339.952 164.281 346.813 170.585C356.672 179.646 371.475 182.95 384.252 178.943C388.316 189.02 391.307 200.339 387.852 210.641C384.396 220.943 372.157 228.806 362.372 224.08C364.926 237.22 367.48 250.359 370.034 263.499C395.05 263.799 420.064 264.31 445.071 265.031C458.325 265.413 472.179 266.016 483.698 272.583C495.218 279.149 503.347 293.695 498.216 305.921C501.488 295.817 504.761 285.713 508.034 275.608C519.569 293.918 525.234 315.865 524.003 337.471C527.998 331.391 531.994 325.311 535.99 319.23C521.793 296.886 519.986 267.189 531.369 243.288C542.533 261.775 548.821 283.177 549.431 304.765C553.595 265.859 581.16 230.389 617.835 216.748C611.472 231.41 605.109 246.071 598.747 260.732C593.299 273.285 586.378 287.208 573.288 291.196C564.653 293.827 552.151 293.667 550.584 302.557C575.386 296.054 601.783 295.732 626.736 301.628C607.508 324.745 570.456 330.437 545.176 314.157C533.25 327.458 522.916 342.187 514.468 357.928C528.819 340.091 551.155 328.936 574.036 328.178C561.743 342.707 547.877 355.904 532.759 367.465C540.783 368.236 549.458 369.293 555.279 374.87C561.099 380.447 561.244 392.186 553.737 395.121ZM219.045 248.703C225.695 248.626 233.144 248.862 237.786 253.624C241.327 257.257 242.276 262.616 243.048 267.63C246.579 290.562 249.884 313.528 252.965 336.525C253.737 342.293 248.901 347.615 243.376 349.444C237.852 351.273 231.845 350.471 226.084 349.649C230.887 345.503 238.997 348.475 244.167 344.796C248.804 341.496 248.778 334.721 248.222 329.057C246.141 307.822 243.306 286.661 239.725 265.626C239.092 261.908 238.317 257.953 235.683 255.253C232.176 251.658 226.571 251.419 221.549 251.412C200.932 251.387 180.315 251.361 159.698 251.335C156.145 251.331 152.406 251.373 149.321 253.136C140.444 258.21 143.717 271.612 148.13 280.835C160.631 278.301 173.405 277.113 186.159 277.298C197.458 277.462 211.549 281.131 213.454 292.27C217.64 316.74 221.826 341.211 226.012 365.681C228.206 378.511 229.416 394.1 219.162 402.118C214.039 406.125 207.239 407.08 200.786 407.896C184.92 409.902 169.053 411.908 153.187 413.914C159.795 471.776 166.403 529.637 173.012 587.499C173.749 593.953 175.098 601.372 180.773 604.533C184.13 606.402 188.203 606.249 192.04 606.04C242.594 603.284 293.101 599.633 343.526 595.09C341.51 590.494 341.47 585.069 343.419 580.444C348.526 610.345 353.633 640.246 358.741 670.146C367.683 663.982 366.309 650.603 363.935 640.004C357.924 613.171 351.913 586.338 345.902 559.505C343.469 563.97 341.035 568.434 338.602 572.898C337.407 567.324 340.752 561.558 345.39 558.244C350.028 554.93 355.746 553.572 361.319 552.377C378.455 548.703 395.777 545.897 413.196 543.973C408.134 508.263 403.072 472.553 398.01 436.843C366.888 445.392 333.929 442.702 301.773 439.945C292.248 439.128 280.144 435.923 279.236 426.407C276.953 402.485 274.669 378.563 272.386 354.641C272.088 351.522 270.281 347.321 267.306 348.303C259.996 350.717 255.649 340.302 255.05 332.627C253.173 308.553 251.296 284.479 249.419 260.405C249.173 257.248 249.109 253.604 251.464 251.486C253.112 250.003 255.486 249.732 257.694 249.53C273.446 248.09 289.199 246.649 304.951 245.209C313.946 244.387 324.164 243.962 330.709 250.186C335.329 254.58 336.879 261.241 337.854 267.542C339.652 279.153 340.247 290.95 339.627 302.683C338.379 291.214 337.131 279.745 335.882 268.276C335.321 263.115 334.635 257.644 331.374 253.604C325.81 246.709 315.458 246.825 306.628 247.552C290.855 248.85 275.081 250.147 259.308 251.445C257.184 251.62 254.881 251.871 253.337 253.341C251.328 255.252 251.385 258.416 251.586 261.182C253.276 284.447 254.966 307.713 256.656 330.978C256.975 335.369 257.409 340.064 260.185 343.481C262.961 346.898 268.985 347.971 271.579 344.413C268.025 336.601 272.941 327.035 280.216 322.483C287.492 317.93 296.421 317.128 304.977 316.446C319.732 315.268 334.488 314.091 349.243 312.914C348.232 282.374 344.939 251.909 339.399 221.858C334.296 220.431 329.649 217.414 326.267 213.334C323.737 219.853 316.2 223.995 309.34 222.637C302.481 221.279 297.091 214.577 297.235 207.587C296.422 215.632 289.413 222.609 281.365 223.388C273.316 224.166 265.1 218.66 262.761 210.92C258.907 215.218 253.905 218.922 248.156 219.446C242.406 219.969 236.046 216.338 235.111 210.641C227.56 220.437 210.011 219.443 203.614 208.857C197.035 219.715 178.305 219.448 172.037 208.407C169.223 218.615 153.514 219.432 145.973 211.999C138.432 204.565 136.964 193.115 135.915 182.579C123.468 194.572 121.222 213.838 123.585 230.961C125.947 248.083 132.104 264.577 133.597 281.797C137.007 282.655 140.747 282.113 143.774 280.324C140.505 270.443 138.354 257.169 147.23 251.734C150.79 249.554 155.196 249.442 159.371 249.393C179.262 249.163 199.154 248.933 219.045 248.703ZM416.098 414.988C442.19 413.693 469.108 417.094 493.904 408.87C497.741 407.597 501.672 405.92 504.145 402.722C497.811 399.811 491.084 394.791 491.239 387.822C491.341 383.244 494.512 379.288 498.086 376.426C501.836 373.422 506.204 371.19 510.836 369.911C511.212 368.765 509.196 368.516 508.197 369.194C507.198 369.871 505.682 370.71 505.018 369.702C504.84 369.432 504.803 369.095 504.772 368.772C502.283 343.445 498.595 318.235 493.724 293.256C492.259 285.746 490.083 277.379 483.464 273.541C479.889 271.469 475.606 271.121 471.484 270.836C440.455 268.689 409.369 267.374 378.27 266.893C370.921 266.779 362.699 267.052 357.547 272.294C353.638 276.271 352.519 282.177 352.105 287.738C350.823 304.956 354.51 322.096 356.909 339.195C359.782 359.677 360.817 380.366 362.712 400.962C362.964 403.703 363.27 406.559 364.753 408.878C367.294 412.854 372.454 414.101 377.127 414.756C384.03 415.723 391.011 416.133 397.98 415.979C404.027 415.845 410.057 415.288 416.098 414.988ZM201.955 282.128C193.121 278.246 183.004 279.285 173.42 280.398C158.922 282.081 144.424 283.764 129.925 285.448C122.957 286.257 115.982 287.067 109.088 288.367C107.427 288.68 105.759 289.025 104.191 289.659C98.0465 292.142 94.3832 298.768 93.5309 305.34C92.6785 311.912 94.1393 318.538 95.5397 325.016C99.892 345.148 103.752 365.469 104.799 386.039C105.006 390.111 105.11 394.237 106.23 398.158C107.349 402.079 109.634 405.851 113.208 407.815C115.957 409.326 119.186 409.64 122.316 409.845C151.004 411.731 179.677 407.104 208.056 402.493C212.093 401.837 216.341 401.089 219.489 398.476C224.35 394.441 225.076 387.342 225.041 381.025C224.977 369.357 223.564 357.698 220.841 346.353C217.655 333.083 212.654 320.031 212.521 306.385C212.463 300.366 213.253 293.881 210.112 288.746C208.257 285.712 205.211 283.559 201.955 282.128ZM65.4399 534.803C69.2965 562.512 70.5922 590.578 69.3051 618.525C69.2372 619.998 71.0272 620.749 72.4758 621.026C91.0275 624.572 110.133 620.028 128.135 614.312C138.368 611.062 148.609 607.359 157.46 601.28C161.508 598.5 165.605 594.31 164.848 589.457C159.985 558.279 157.309 526.76 156.849 495.209C140.469 508.007 119.683 513.439 99.5377 518.563C89.9896 520.992 80.312 523.438 70.4601 523.355C68.0786 523.335 66.1011 525.428 65.4355 527.714C64.77 530.001 65.1116 532.444 65.4399 534.803ZM441.946 548.81C411.264 545.822 379.964 549.331 350.705 559.038C352.462 572.402 354.862 585.682 357.895 598.816C359.11 604.075 360.425 609.31 361.741 614.544C364.303 624.739 366.866 634.934 369.428 645.129C369.784 646.548 370.231 648.098 371.454 648.901C372.546 649.618 373.958 649.536 375.26 649.428C405.557 646.901 435.836 644.163 466.095 641.216C459.48 611.729 452.866 582.242 446.251 552.755C445.997 551.623 445.69 550.402 444.789 549.67C444.009 549.036 442.947 548.907 441.946 548.81ZM396.717 419.37C390.041 419.71 383.264 420.042 376.745 418.561C370.226 417.08 363.883 413.526 360.535 407.74C358.613 409.952 354.793 410.117 352.687 408.081C350.581 406.044 350.619 402.22 352.766 400.226C344.284 400.302 335.803 400.379 327.322 400.455C331.198 402.738 330.879 409.47 326.872 411.515C322.866 413.56 317.319 410.106 317.227 405.609C317.185 403.59 318.423 401.323 320.434 401.143C319.601 399.713 317.436 400.559 315.788 400.403C313.306 400.168 311.95 397.464 311.08 395.128C307.548 385.654 304.335 376.066 301.123 366.479C303.373 370.161 308.438 371.817 312.428 370.175C313.837 369.595 313.88 367.569 313.28 366.168C312.232 363.721 309.844 361.836 307.191 361.627C304.538 361.419 301.777 363.04 300.88 365.546C299.551 364.551 300.117 362.252 301.512 361.352C302.907 360.451 304.694 360.531 306.351 360.631C321.994 361.575 337.695 361.56 353.337 360.586C354.049 360.541 354.834 360.462 355.319 359.939C355.867 359.348 355.815 358.436 355.727 357.634C355.13 352.132 354.532 346.631 353.934 341.129C353.868 340.519 353.773 339.851 353.317 339.44C352.815 338.988 352.059 339.008 351.384 339.056C331.777 340.453 312.222 342.564 292.768 345.383C290.697 345.683 288.771 343.945 288.118 341.957C287.464 339.969 287.766 337.809 288.075 335.74C288.183 335.013 288.322 334.228 288.86 333.728C289.355 333.267 290.072 333.159 290.743 333.074C310.982 330.491 331.353 328.94 351.75 328.431C351.256 330.447 348.628 330.881 346.553 330.918C327.623 331.253 308.713 332.771 289.972 335.458C288.475 338.017 290.526 341.464 293.288 342.541C296.051 343.617 299.146 343.042 302.059 342.493C318.117 339.471 334.408 337.69 350.739 337.171C353.071 337.097 353.35 333.742 352.86 331.461C351.722 326.164 350.583 320.868 349.445 315.571C338.136 317.713 326.583 318.567 315.081 318.113C308.275 317.844 301.506 319.033 294.799 320.218C289.099 321.225 283.024 322.419 278.904 326.485C274.089 331.239 273.226 338.671 273.519 345.431C273.998 356.522 276.812 367.369 278.202 378.383C279.899 391.839 279.462 405.479 280.765 418.979C281.117 422.617 281.617 426.321 283.248 429.591C284.879 432.861 287.843 435.669 291.457 436.208C321.154 440.636 351.435 441.138 381.263 437.699C384.018 437.381 386.798 437.024 389.399 436.061C393.505 434.543 397.025 431.498 399.119 427.654C399.96 426.112 400.587 424.347 400.281 422.617C399.974 420.887 398.472 419.28 396.717 419.37ZM159.297 495.236C162.405 529.429 165.513 563.622 168.621 597.815C169.179 603.961 169.717 610.31 167.796 616.174C165.875 622.039 160.822 627.34 154.654 627.542C158.275 632.838 164.525 635.867 170.844 636.976C177.164 638.085 183.643 637.498 190.032 636.907C242.673 632.044 295.314 627.18 347.956 622.316C346.826 615.738 345.696 609.16 344.566 602.582C344.312 601.105 343.587 599.233 342.093 599.344C305.899 602.042 269.706 604.739 233.512 607.436C218.649 608.544 203.713 609.651 188.859 608.436C181.343 607.821 172.06 604.834 171.318 597.329C165.384 537.282 158.515 477.328 150.713 417.495C150.593 416.574 150.444 415.59 149.815 414.908C148.975 413.997 147.584 413.927 146.345 413.921C138.944 413.883 131.543 413.846 124.142 413.808C126.304 426.07 129.109 438.218 132.544 450.186C133.179 452.397 134.235 454.979 136.501 455.377C144.639 456.807 151.062 463.501 154.41 471.054C157.758 478.608 158.549 487.007 159.297 495.236ZM130.861 282.399C124.509 250.179 119.134 217.766 114.747 185.22C114.498 183.38 114.258 181.471 114.8 179.694C115.916 176.033 119.922 174.114 123.646 173.23C130.928 171.503 138.533 172.079 145.997 172.629C214.237 177.661 282.7 179.675 351.118 178.662C348.397 173.143 342.925 169.378 337.104 167.382C331.284 165.386 325.063 164.943 318.924 164.518C258.698 160.356 198.381 156.456 138.016 157.183C130.63 157.272 123.158 157.442 116.027 159.365C108.896 161.288 102.034 165.161 97.9203 171.295C91.4373 180.962 93.0053 193.73 95.0119 205.194C99.7111 232.042 105.428 258.712 112.146 285.127C118.385 284.217 124.623 283.308 130.861 282.399ZM277.795 219.425C281.056 219.459 284.445 219.277 287.331 217.757C292.413 215.082 294.67 208.918 295.005 203.185C295.341 197.452 294.209 191.705 294.574 185.973C294.657 184.667 295.387 182.935 296.654 183.263C297.572 189.862 298.49 196.46 299.408 203.058C299.914 206.701 300.441 210.412 302.037 213.726C303.634 217.039 306.503 219.952 310.115 220.646C312.189 221.044 314.355 220.687 316.332 219.944C321.066 218.164 325.034 213.634 324.854 208.58C324.605 201.602 324.357 194.624 324.108 187.646C324.01 184.885 322.984 181.206 320.225 181.351C301.833 182.315 283.386 182.229 265.003 181.096C263.663 181.013 263.309 182.913 263.451 184.248C264.187 191.169 264.923 198.091 265.658 205.012C266.214 210.238 267.4 216.38 272.195 218.531C273.932 219.31 275.891 219.405 277.795 219.425ZM372.126 653.745C371.245 654.363 370.664 655.313 370.128 656.246C367.338 661.101 365.096 666.272 363.458 671.627C395.653 669.377 427.822 666.764 459.958 663.786C461.166 663.674 462.477 663.517 463.343 662.667C463.906 662.116 464.194 661.352 464.466 660.613C465.669 657.345 466.872 654.078 468.075 650.81C468.66 649.22 469.18 647.241 468.036 645.992C467.085 644.954 465.468 644.987 464.065 645.099C434.683 647.453 405.316 649.988 375.966 652.703C374.629 652.827 373.225 652.975 372.126 653.745ZM428.88 455.39C428.009 445.233 426.236 433.832 417.947 427.898C414.712 436.806 411.447 445.848 410.707 455.296C409.967 464.743 412.054 474.813 418.392 481.859C419.282 482.849 420.273 483.81 420.745 485.055C421.217 486.3 420.977 487.943 419.821 488.604C411.207 481.109 407.641 469.087 407.843 457.671C408.045 446.254 411.544 435.185 415.011 424.305C415.772 421.915 413.593 419.401 411.147 418.844C408.702 418.286 406.175 419.104 403.8 419.911C403.338 420.069 403.134 420.596 402.988 421.062C401.346 426.296 399.688 431.844 400.96 437.18C406.441 460.168 405.734 484.295 411.312 507.26C411.518 508.108 411.742 508.974 412.236 509.694C415.936 502.459 419.636 495.224 423.336 487.99C425.074 484.59 426.823 481.167 427.908 477.506C430.018 470.388 429.513 462.788 428.88 455.39ZM559.769 288.525C560.483 289.114 561.443 289.3 562.364 289.403C572.827 290.573 582.7 283.451 588.495 274.661C594.289 265.87 597.026 255.485 600.824 245.665C604.389 236.449 608.949 227.619 614.398 219.376C603.488 229.615 590.055 236.784 578.667 246.487C567.278 256.191 557.585 269.801 558.389 284.741C558.463 286.122 558.702 287.644 559.769 288.525ZM140.716 189.517C142.203 196.037 141.588 203.282 145.201 208.91C148.702 214.366 156.089 216.966 162.236 214.906C168.383 212.847 172.713 206.322 172.221 199.857C172.11 198.388 171.778 196.946 171.447 195.51C170.152 189.885 168.857 184.26 167.562 178.635C167.433 178.075 167.289 177.487 166.892 177.072C166.323 176.476 165.412 176.407 164.589 176.376C156.677 176.073 148.765 175.77 140.852 175.467C140.091 175.438 139.256 175.432 138.664 175.912C137.915 176.519 137.872 177.634 137.97 178.593C138.349 182.334 139.88 185.852 140.716 189.517ZM354.897 195.599C355.086 204.604 360.953 212.435 367.141 218.981C367.746 219.621 368.365 220.262 369.12 220.714C370.341 221.444 371.827 221.617 373.244 221.495C378.025 221.084 382.113 217.469 384.131 213.116C386.149 208.763 386.376 203.784 385.942 199.006C385.507 194.228 384.45 189.523 384.023 184.744C383.937 183.785 383.586 182.534 382.624 182.538C374.164 182.57 365.705 182.603 357.246 182.635C356.164 182.639 355.017 182.661 354.103 183.241C353.19 183.82 352.679 185.172 353.357 186.016C355.428 188.592 354.828 192.294 354.897 195.599ZM483.534 474.173C460.358 473.766 439.112 487.505 422.902 504.073C420.169 506.865 417.501 509.795 415.682 513.253C415.361 513.865 415.107 514.717 415.634 515.164C415.915 515.402 416.316 515.417 416.684 515.415C430.167 515.368 443.135 509.672 454.09 501.811C465.045 493.95 474.274 483.975 483.534 474.173ZM196.761 213.271C200.072 211.365 202.203 207.57 202.106 203.751C202.058 201.814 201.485 199.935 201.025 198.053C199.84 193.21 199.38 188.191 199.664 183.214C199.724 182.154 199.815 181.065 199.496 180.052C199.177 179.039 198.332 178.108 197.272 178.05C188.514 177.572 179.756 177.093 170.998 176.615C170.683 176.598 170.339 176.589 170.085 176.775C169.691 177.065 169.713 177.651 169.786 178.134C170.864 185.261 174.312 191.974 174.534 199.179C174.615 201.83 174.261 204.546 175.003 207.092C175.954 210.353 178.669 212.927 181.82 214.196C184.97 215.464 188.506 215.536 191.848 214.933C193.558 214.625 195.255 214.138 196.761 213.271ZM547.197 310.84C553.54 312.63 559.147 316.371 565.301 318.731C578.942 323.963 595.179 321.778 606.952 313.127C612.007 309.412 617.062 305.697 622.118 301.983C615.956 303.441 609.581 304 603.259 303.635C592.695 303.027 582.264 299.863 571.712 300.655C562.737 301.329 554.008 304.956 547.197 310.84ZM366.073 262.03C364.827 255.124 363.58 248.218 362.333 241.313C360.663 232.057 358.992 222.801 357.321 213.545C357.202 212.888 357.059 212.184 356.572 211.727C356.085 211.271 355.136 211.269 354.871 211.882C353.203 215.733 349.786 218.786 345.771 220.013C343.336 220.757 343.127 224.08 343.41 226.612C345.407 244.469 347.772 262.286 350.502 280.046C351.296 272.782 357.52 266.474 364.773 265.584C366.184 265.41 366.326 263.429 366.073 262.03ZM232.818 205.859C232.044 198.414 231.066 190.99 229.887 183.599C229.644 182.074 228.995 180.174 227.453 180.106C219.482 179.757 211.511 179.407 203.539 179.057C203.255 179.045 202.955 179.036 202.704 179.169C202.06 179.51 202.166 180.448 202.355 181.152C204.193 187.977 205.169 195.034 205.251 202.102C205.272 203.841 205.252 205.647 205.98 207.227C207.051 209.552 209.49 210.886 211.808 211.972C215.848 213.865 220.265 215.528 224.673 214.841C229.081 214.154 233.28 210.296 232.818 205.859ZM236.265 205.901C237.07 209.796 238.543 214.327 242.36 215.447C245.58 216.392 249.062 216.653 252.293 215.742C255.524 214.832 258.47 212.663 259.915 209.633C260.944 207.477 261.176 205.037 261.31 202.651C261.677 196.117 261.425 189.547 260.557 183.06C260.511 182.713 260.459 182.356 260.284 182.052C259.818 181.247 258.722 181.134 257.792 181.114C249.675 180.937 241.558 180.76 233.441 180.583C232.778 180.569 231.853 181.258 232.413 181.612C233.321 189.762 234.607 197.87 236.265 205.901ZM509.01 286.515C502.67 300.851 500.802 317.128 503.731 332.527C504.902 338.679 507.202 345.207 512.527 348.502C514.094 349.471 516.707 349.758 517.287 348.009C524.023 327.686 520.88 304.334 509.01 286.515ZM98.0169 466.504C100.707 468.35 103.739 469.696 106.913 470.452C110.923 471.407 115.087 471.419 119.209 471.518C128.839 471.75 138.457 472.487 148.01 473.727C149.343 473.9 150.444 472.458 150.409 471.114C150.374 469.771 149.557 468.584 148.71 467.541C143.614 461.264 136.174 456.939 128.199 455.616C122.549 454.679 116.773 455.204 111.048 455.039C105.324 454.875 99.3487 453.905 94.7838 450.447C94.5421 453.736 94.5228 457.04 94.7262 460.331C94.8085 461.663 94.943 463.044 95.6218 464.193C96.1908 465.156 97.0947 465.871 98.0169 466.504ZM329.709 211.084C330.608 212.714 332.051 213.971 333.528 215.103C335.13 216.33 336.86 217.479 338.826 217.929C343.669 219.039 348.62 215.45 350.661 210.921C352.702 206.392 352.495 201.2 352.023 196.254C351.666 192.515 351.179 188.788 350.564 185.083C350.462 184.465 350.344 183.819 349.955 183.327C349.273 182.465 348.026 182.366 346.927 182.336C341.024 182.179 335.12 182.022 329.217 181.866C327.91 181.831 326.053 182.456 326.441 183.705C328.179 189.294 328.936 195.187 328.669 201.035C328.513 204.447 328.06 208.093 329.709 211.084M538.638 314.869C544.906 304.754 546.782 292.019 543.698 280.526C540.971 270.365 534.631 261.364 532.621 251.037C527.937 265.251 523.22 280.551 527.458 294.904C529.63 302.261 534.016 308.748 538.638 314.869ZM434.8 474.005C453.442 469.204 470.649 458.967 483.765 444.877C487.69 440.661 491.707 436.531 495.813 432.493C485.753 433.871 475.933 436.982 466.914 441.648C453.155 448.764 441.083 459.846 434.8 474.005ZM548.377 350.269C555.233 343.825 562.089 337.381 568.945 330.937C545.758 333.893 524.104 347.291 511.111 366.722C514.46 369.301 519.265 367.782 523.172 366.167C528.605 363.92 534.086 361.648 538.923 358.305C542.329 355.951 545.36 353.104 548.377 350.269ZM97.4247 491.096C97.4825 491.692 97.5529 492.321 97.9136 492.799C98.7028 493.843 100.312 493.587 101.569 493.22C115.957 489.015 130.143 484.12 144.062 478.556C145.065 478.155 146.236 477.52 146.256 476.439C135.578 475.699 124.9 474.958 114.222 474.217C111.61 474.036 108.988 473.854 106.428 473.307C102.577 472.485 98.9041 470.834 95.7326 468.499C95.9651 476.051 96.6951 483.577 97.4247 491.096ZM434.733 418.849C433.872 419.472 433.523 420.569 433.227 421.59C432.211 425.092 431.189 428.809 432.133 432.332C432.614 434.127 433.58 435.748 434.534 437.343C437.173 441.754 439.812 446.166 442.451 450.577C442.697 450.988 442.963 451.419 443.387 451.641C444.648 452.303 445.892 450.748 446.477 449.45C450.275 441.025 454.16 432.117 453.298 422.915C453.166 421.5 452.782 419.895 451.517 419.246C450.937 418.948 450.262 418.91 449.61 418.878C445.698 418.683 441.785 418.489 437.872 418.295C436.789 418.241 435.612 418.214 434.733 418.849ZM494.538 387.659C494.438 393.589 499.611 398.546 505.285 400.272C510.959 401.999 517.047 401.255 522.944 400.622C533.313 399.509 544.279 398.591 552.802 392.583C554.694 391.25 556.481 389.605 557.326 387.451C558.644 384.09 557.319 380.122 554.841 377.497C552.364 374.871 548.929 373.369 545.491 372.269C533.206 368.336 519.566 368.789 507.569 373.528C501.24 376.029 494.652 380.855 494.538 387.659ZM96.4484 448.232C97.5653 449.274 99.8289 449.54 100.264 448.076C101.756 443.059 105.111 438.758 109.062 435.326C113.014 431.895 117.57 429.244 122.095 426.615C123.316 425.906 123.239 424.148 123.003 422.756C122.546 420.06 122.089 417.364 121.632 414.668C121.516 413.985 121.288 413.17 120.619 412.987C120.072 412.838 119.532 413.208 119.085 413.557C115.838 416.092 112.592 418.627 109.345 421.163C102.84 426.242 95.8689 432.071 94.4582 440.202C93.9667 443.036 94.3459 446.27 96.4484 448.232M121.773 430.083C114.482 434.637 106.764 439.678 103.451 447.61C103.245 448.104 103.054 448.622 103.07 449.157C103.102 450.213 103.953 451.102 104.928 451.508C105.903 451.913 106.988 451.931 108.044 451.944C114.286 452.017 120.528 452.091 126.769 452.164C127.073 452.168 127.402 452.163 127.642 451.977C128.021 451.682 127.982 451.108 127.907 450.633C126.911 444.341 125.916 438.049 124.92 431.757C124.778 430.861 124.489 429.791 123.616 429.547C122.981 429.37 122.333 429.734 121.773 430.083ZM431.879 419.236C427.284 418.05 422.327 418.309 417.879 419.966C418.74 422.792 420.267 425.413 422.3 427.557C429.151 434.78 431.177 445.269 431.955 455.194C432.37 460.496 432.517 465.819 432.394 471.135C435.403 466.492 438.413 461.849 441.423 457.207C441.722 456.745 442.03 456.256 442.063 455.707C442.096 455.158 441.846 454.635 441.593 454.146C438.623 448.411 434.259 443.465 431.504 437.624C428.748 431.783 427.903 424.325 431.879 419.236ZM123.982 176.204C121.447 176.606 118.557 177.25 117.353 179.516C116.52 181.083 116.766 182.979 117.033 184.734C118.135 191.958 119.237 199.182 120.338 206.406C125.976 196.268 131.255 185.936 136.532 175.607C135.555 174.503 133.824 174.642 132.368 174.873C129.573 175.317 126.777 175.76 123.982 176.204ZM470.981 421.496C471.762 422.532 473.8 421.386 473.32 420.181C480.85 422.342 489.058 420.804 496.17 417.519C503.282 414.235 509.491 409.313 515.602 404.412C513.035 404.054 510.469 403.695 507.902 403.336C507.379 403.263 506.7 403.273 506.5 403.763C505.118 407.146 502.143 409.68 498.857 411.28C495.572 412.88 491.957 413.655 488.383 414.416C485.902 414.945 483.422 415.473 480.942 416.001C477.1 416.82 472.767 417.998 470.981 421.496ZM334.766 369.11C335.248 368.988 335.766 368.843 336.074 368.453C336.553 367.847 336.314 366.976 336.188 366.214C336.063 365.453 336.256 364.439 337.016 364.306C337.71 364.445 338.029 365.267 338.046 365.974C338.064 366.681 337.908 367.418 338.163 368.077C338.732 369.545 340.758 369.602 342.319 369.403C343.243 369.286 344.167 369.168 345.091 369.05C345.381 369.013 345.69 368.967 345.905 368.77C346.588 368.144 345.637 367.122 345.426 366.22C345.262 365.523 345.588 364.769 345.375 364.085C345.011 362.921 343.462 362.743 342.243 362.783C332.917 363.093 323.592 363.402 314.267 363.711C314.427 365.476 314.909 367.211 315.684 368.805C315.851 369.148 316.048 369.503 316.379 369.693C316.715 369.885 317.126 369.873 317.513 369.855C319.831 369.747 322.15 369.639 324.468 369.532C324.665 369.522 324.873 369.51 325.037 369.401C325.46 369.122 325.314 368.476 325.119 368.008C324.785 367.202 324.45 366.395 324.115 365.589C323.824 364.888 325.093 364.472 325.628 365.011C326.162 365.551 326.182 366.397 326.434 367.114C326.958 368.6 328.538 369.508 330.103 369.699C331.668 369.89 333.238 369.499 334.766 369.11ZM470.2 418.477C470.708 417.935 469.587 417.37 468.85 417.461C464.651 417.976 460.452 418.49 456.252 419.005C455.691 419.074 454.95 419.382 455.084 419.931C456.463 425.582 455.945 431.678 453.633 437.015C453.192 438.031 452.903 439.583 453.957 439.924C458.336 432.064 463.821 424.822 470.2 418.477ZM327.122 373.372C326.99 372.916 326.842 372.437 326.494 372.113C326.1 371.746 325.529 371.652 324.994 371.593C322.242 371.292 319.438 371.481 316.752 372.149C317.592 374.874 318.432 377.6 319.273 380.325C319.432 380.842 319.647 381.421 320.148 381.624C320.404 381.727 320.691 381.71 320.967 381.69C323.684 381.5 326.4 381.309 329.116 381.119C328.527 378.518 327.861 375.934 327.122 373.372ZM309.435 382.903C309.737 383.068 310.106 383.017 310.446 382.962C312.905 382.561 315.364 382.16 317.824 381.759C316.936 378.915 316.049 376.071 315.161 373.227C315.031 372.81 314.869 372.353 314.485 372.145C314.18 371.98 313.811 372.015 313.468 372.055C311.275 372.31 309.082 372.565 306.89 372.82C306.477 372.868 305.989 372.971 305.836 373.357C305.733 373.619 305.831 373.913 305.929 374.178C306.894 376.784 307.86 379.391 308.826 381.998C308.956 382.347 309.109 382.724 309.435 382.903ZM337.066 371.541C336.546 371.09 335.777 371.121 335.09 371.177C332.924 371.355 330.759 371.533 328.593 371.711C329.24 374.487 330.055 377.223 331.032 379.9C331.16 380.251 331.305 380.621 331.603 380.846C331.976 381.127 332.486 381.112 332.951 381.084C334.43 380.995 335.908 380.905 337.387 380.816C338.068 380.775 338.896 380.63 339.124 379.987C339.234 379.678 339.163 379.338 339.091 379.018C338.641 377.015 338.192 375.012 337.742 373.009C337.622 372.474 337.48 371.901 337.066 371.541ZM324.146 391.481C323.932 391.514 323.703 391.555 323.547 391.705C323.243 391.998 323.382 392.503 323.542 392.893C324.111 394.286 324.68 395.678 325.249 397.071C325.46 397.587 325.698 398.137 326.169 398.435C326.605 398.712 327.153 398.717 327.669 398.714C329.634 398.702 331.599 398.691 333.565 398.679C333.852 398.677 334.165 398.667 334.386 398.484C334.788 398.152 334.638 397.513 334.453 397.026C333.697 395.033 332.941 393.04 332.185 391.047C331.942 390.407 331.052 390.398 330.376 390.504C328.3 390.83 326.223 391.155 324.146 391.481ZM340.681 371.147C340.267 371.149 339.803 371.172 339.524 371.477C339.188 371.845 339.295 372.422 339.423 372.904C339.981 375.016 340.54 377.128 341.099 379.24C341.197 379.612 341.311 380.009 341.609 380.252C342.005 380.574 342.577 380.514 343.082 380.437C344.945 380.152 346.808 379.868 348.671 379.583C348.472 377.421 348.128 375.272 347.644 373.155C347.493 372.494 347.284 371.771 346.711 371.408C346.282 371.135 345.743 371.129 345.235 371.13C343.717 371.136 342.199 371.142 340.681 371.147ZM344.473 398.431C343.869 396.238 343.265 394.045 342.662 391.853C342.431 391.015 342.104 390.066 341.295 389.75C340.896 389.595 340.452 389.63 340.025 389.667C338.037 389.84 336.049 390.013 334.061 390.185C334.585 392.149 335.206 394.087 335.92 395.99C336.279 396.948 336.825 398.034 337.835 398.198C340.026 398.552 342.262 398.631 344.473 398.431ZM347.934 398.279C349.735 398.426 351.714 398.526 353.17 397.455C352.539 394.999 351.907 392.542 351.275 390.086C351.133 389.533 350.943 388.917 350.436 388.654C350.064 388.461 349.618 388.514 349.202 388.572C347.417 388.82 345.631 389.069 343.846 389.317C344.27 391.917 344.99 394.469 345.989 396.907C346.142 397.281 346.314 397.669 346.635 397.916C346.996 398.194 347.479 398.242 347.934 398.279ZM508.521 363.315C509.898 360.49 511.274 357.664 512.651 354.839C512.795 354.542 512.944 354.221 512.891 353.895C512.84 353.578 512.609 353.324 512.388 353.091C510.428 351.019 508.469 348.947 506.51 346.876C505.695 347.988 505.79 349.499 505.919 350.871C506.346 355.375 506.772 359.879 507.199 364.382C507.798 364.516 508.253 363.867 508.521 363.315ZM349.913 370.821C349.656 370.803 349.363 370.798 349.184 370.983C348.982 371.19 349.027 371.525 349.086 371.809C349.473 373.679 349.861 375.549 350.248 377.418C350.392 378.112 350.562 378.853 351.085 379.33C352.778 380.873 356.038 378.218 357.611 379.883C357.887 377.228 357.689 374.524 357.026 371.937C356.98 371.756 356.924 371.564 356.785 371.438C356.624 371.293 356.39 371.271 356.174 371.256C354.087 371.111 352 370.966 349.913 370.821ZM310.981 384.69C310.755 384.72 310.52 384.755 310.335 384.886C309.923 385.179 309.939 385.784 309.998 386.285C310.156 387.623 310.329 389.007 311.028 390.158C311.728 391.309 313.11 392.161 314.411 391.812C316.275 391.312 318.138 390.812 320.002 390.313C319.921 388.531 319.561 386.763 318.938 385.093C318.782 384.676 318.586 384.236 318.203 384.011C317.805 383.777 317.308 383.831 316.851 383.893C314.894 384.159 312.938 384.424 310.981 384.69ZM354.45 369.061C355.011 368.975 355.608 368.873 356.025 368.488C357.266 367.341 355.847 365.011 356.854 363.653C357.247 363.123 356.285 362.649 355.625 362.677C352.681 362.801 349.738 362.925 346.794 363.049C346.908 364.267 347.119 365.476 347.426 366.66C347.768 367.98 349.055 368.883 350.386 369.176C351.717 369.469 353.102 369.265 354.45 369.061ZM330.655 384.917C330.276 383.096 327.838 382.67 326.01 383.011C324.181 383.352 322.139 384.013 320.585 382.99C320.683 384.913 321.132 386.817 321.903 388.581C322.065 388.952 322.261 389.338 322.613 389.537C323.01 389.761 323.502 389.69 323.951 389.613C325.754 389.301 327.556 388.99 329.359 388.679C330.252 388.524 331.43 387.817 330.96 387.042C330.586 386.424 330.803 385.625 330.655 384.917ZM319.519 392.393C318.046 392.643 316.573 392.892 315.101 393.142C314.303 393.277 313.321 393.596 313.235 394.401C313.02 396.434 315.046 398.074 317.05 398.479C319.054 398.884 321.135 398.487 323.169 398.689C323.085 396.96 322.724 395.245 322.102 393.63C321.954 393.246 321.779 392.85 321.452 392.598C320.923 392.19 320.178 392.282 319.519 392.393ZM358.335 388.449C356.38 388.241 354.393 388.345 352.471 388.755C353.533 391.285 354.287 393.944 354.712 396.655C354.907 397.897 356.682 397.922 357.901 397.611C358.355 397.495 358.851 397.351 359.111 396.96C359.335 396.623 359.324 396.188 359.305 395.784C359.201 393.552 359.096 391.32 358.992 389.087C358.985 388.946 358.976 388.797 358.895 388.682C358.775 388.511 358.542 388.471 358.335 388.449ZM326.419 408.449C328.262 406.61 327.317 402.896 324.82 402.161C322.322 401.426 319.516 404.036 320.069 406.58C320.641 409.211 324.514 410.351 326.419 408.449ZM340.905 386.885C342.077 385.355 340.322 383.096 338.424 382.763C336.525 382.431 334.6 383.158 332.672 383.13C331.962 383.119 331.933 384.188 332.163 384.86C332.462 385.729 332.76 386.598 333.059 387.467C333.181 387.822 333.403 388.249 333.778 388.225C335.152 388.139 336.527 388.053 337.901 387.967C338.999 387.898 340.237 387.758 340.905 386.885ZM359.904 401.66C359.763 401.275 359.553 400.9 359.221 400.659C358.924 400.442 358.554 400.351 358.188 400.307C355.304 399.959 352.503 402.836 352.929 405.711C354.157 407.17 356.469 407.573 358.118 406.615C359.768 405.657 360.564 403.449 359.904 401.66ZM342.097 384.282C342.034 385.546 343.145 386.626 344.364 386.967C345.583 387.308 346.879 387.088 348.125 386.865C348.763 386.752 349.478 386.587 349.812 386.032C350.524 384.848 349.111 382.676 350.416 382.222C349.54 382.102 348.664 381.982 347.788 381.861C346.632 381.702 345.436 381.546 344.313 381.866C343.191 382.186 342.155 383.116 342.097 384.282ZM352.565 385.9C353.892 387.054 356.113 386.894 357.346 385.641C358.579 384.387 358.74 382.263 357.81 380.771C355.488 381.201 353.165 381.632 350.843 382.063C351.136 383.461 351.487 384.963 352.565 385.9ZM532.018 363.703C530.21 364.373 528.401 365.043 526.593 365.713C525.695 366.046 524.784 366.385 524.006 366.943C526.964 368.098 530.694 366.589 532.018 363.703ZM363.928 220.173C363.88 219.374 363.035 218.721 362.25 218.877C362.301 219.69 363.111 220.374 363.921 220.286L363.928 220.173Z" fill="#00160A"/>
</svg>
