<svg width="50" height="50" viewBox="0 0 50 50" fill="none" xmlns="http://www.w3.org/2000/svg">
<path fill-rule="evenodd" clip-rule="evenodd" d="M17.5857 48.6316L12.0349 22.5849C12.0349 22.5849 11.7757 27.956 8.83713 30.1407C5.89856 32.3253 0.0885998 31.4663 0.0885998 31.4663C0.0885998 31.4663 -0.831661 13.278 3.25818 7.73946C7.34802 2.20095 11.3768 7.43157 19.145 5.65993C26.9064 3.88981 25.2987 -1.94047 34.3175 0.655937C43.3363 3.25234 50 22.5539 50 22.5539C50 22.5539 42.9288 24.9236 39.9199 24.3158C36.9111 23.708 37.6447 20.0582 37.6447 20.0582C37.6447 20.0582 35.5122 19.1505 36.0558 25.55C36.3198 28.6586 38.673 33.334 39.9199 39.4495C40.3843 41.7272 39.9199 46.8449 39.9199 46.8449C39.9199 46.8449 31.8946 47.6635 24.9598 49.1479C18.0249 50.6323 17.5857 48.6316 17.5857 48.6316Z" fill="#E7EAEE"/>
</svg>
