<svg width="92" height="45" viewBox="0 0 92 45" fill="none" xmlns="http://www.w3.org/2000/svg">
<path fill-rule="evenodd" clip-rule="evenodd" d="M62.517 5.9061C63.4371 4.15767 64.436 2.32369 66.1286 1.30461C67.8213 0.285535 70.4182 0.496206 71.3296 2.24921C72.2995 4.11488 70.8563 6.36386 69.1619 7.60911C67.4676 8.85436 65.3841 9.73218 64.2833 11.5238C70.2331 15.4444 76.1829 19.365 82.1327 23.2856C86.7927 26.3564 92.0656 30.7421 91.1117 36.2408C90.5524 39.4648 87.8199 41.9711 84.7768 43.1738C81.7337 44.3765 78.3878 44.5022 75.117 44.5963C53.1345 45.2293 31.1305 45.1177 9.15556 44.262C7.63095 44.2026 5.93049 44.0606 4.91484 42.922C4.12797 42.0399 3.9655 40.7817 3.83841 39.6065C2.57359 27.9101 1.30877 16.2138 0.04395 4.51747C-0.00277077 4.08543 -0.0472476 3.63428 0.107478 3.2282C0.758111 1.52058 3.31296 2.57253 4.74117 3.71249C14.857 11.7867 31.0291 10.8381 40.1317 1.63668C42.3311 -0.586677 46.0754 -0.299275 48.901 1.04126C51.7265 2.3818 54.0907 4.56251 56.9253 5.8838C56.6229 4.24488 58.068 2.51567 59.7346 2.52231C61.4012 2.52895 62.8325 4.26964 62.517 5.9061Z" fill="white"/>
</svg>
