<svg width="324" height="451" viewBox="0 0 324 451" fill="none" xmlns="http://www.w3.org/2000/svg">
<path fill-rule="evenodd" clip-rule="evenodd" d="M1.21656 51.4105C1.21656 51.4105 -1.23788 22.0105 4.94027 12.5595C11.1184 3.10851 34.6519 0.263085 34.6519 0.263085C34.6519 0.263085 99.1531 -0.579849 134.003 0.752309C168.853 2.08447 238.551 8.05725 238.551 8.05725C238.551 8.05725 247.608 10.0327 251.679 12.5595C255.75 15.0863 261.429 22.2563 261.429 22.2563C261.429 22.2563 273.786 24.0577 279.933 24.3027C286.08 24.5476 291.712 23.4631 291.712 23.4631C291.712 23.4631 299.546 46.3106 294.008 57.2005C288.469 68.0903 269.874 66.4016 269.874 66.4016L276.457 107.157C276.457 107.157 268.631 110.855 264.354 115.493C260.077 120.13 258.359 126.779 258.359 126.779L271.071 250.731C271.071 250.731 274.81 257.175 282.843 259.621C290.876 262.068 308.974 262.276 308.974 262.276C308.974 262.276 308.328 274.775 308.974 280.153C309.619 285.532 310.194 288.479 310.194 288.479L323.82 386.023C323.82 386.023 310.577 388.433 297.472 391.612C284.368 394.791 258.359 401.905 258.359 401.905C258.359 401.905 249.19 406.085 248.003 412.834C246.815 419.583 251.679 439.865 251.679 439.865L105.672 450.994C105.672 450.994 91.4635 451.262 86.5763 448.182C81.6892 445.103 80.3498 435.039 80.3498 435.039L60.6009 257.415C60.6009 257.415 29.0425 258.187 19.8254 252.925C10.6084 247.662 9.4937 228.235 9.4937 228.235C9.4937 228.235 11.025 217.223 9.4937 209.581C8.98273 207.031 2.3081 179.391 0.0657904 153.091C-1.20304 138.208 16.3089 126.779 16.3089 126.779L1.21656 51.4105Z" fill="white"/>
</svg>
